<svg width="1014" height="224" fill="#2980b9" version="1.1" viewBox="0 0 676 149.33" xmlns="http://www.w3.org/2000/svg" xmlns:osb="http://www.openswatchbook.org/uri/2009/osb" xmlns:xlink="http://www.w3.org/1999/xlink"><defs><filter id="filter3777" x="-.0086633" y="-.0086633" width="1.0173" height="1.0173" color-interpolation-filters="sRGB"><feGaussianBlur stdDeviation="0.08542958"/></filter></defs><path d="m83.432 0.098325h70.496v71.242h-70.496z" fill="none" stroke-width="2.9528"/><path transform="matrix(2.928 0 0 2.959 83.544 .21161)" d="m0.16674 0.16674h23.667v23.667h-23.667z" fill="none" filter="url(#filter3777)" opacity=".1891" style="mix-blend-mode:normal;paint-order:markers stroke fill"/><g><g transform="scale(.98839 1.0118)" fill="#000" stroke="#972b2b" stroke-opacity=".64257" stroke-width=".19686" aria-label="SWC-DB"><path d="m190.09 63.462-5.2624 6.9204-10.525 14.057q-0.93714 1.4417-2.6672 4.0369-1.7301 2.5231-4.2532 6.4158l-14.201 21.194-16.075-5.4066h-25.519q-1.8743 0.50462-8.6505 2.2347-6.7041 1.658-18.526 4.5415l14.345-9.4434q1.0092-0.79296 2.7393-1.9464 1.8022-1.2255 4.3252-2.7393 0.14417-0.0721 5.3345-1.3697 5.2624-1.3697 15.643-3.9648h15.787q7.7854 2.5231 15.787 5.1903l-0.72087 2.0905 9.7318-14.778q1.658-2.0905 5.0461-7.425l4.974-15.066v-9.7318q-4.109-4.109-4.6857-4.5415-0.36043-0.21626-2.8114-1.4417-2.451-1.2976-7.0646-3.6044h-25.014l-8.6505 13.12h24.005l5.9112 5.9112v5.9112l-7.4971 15.066v-9.4434l-9.4434-4.6857h-19.968q-2.0905 2.2347-4.6136 4.7578-2.451 2.5231-5.4066 5.4066l-10.741 5.3345h-6.7041v-9.1551l6.7041 6.4879q3.9648-1.8022 9.2993-4.7578 0.28835-0.14418 2.3068-2.1626 2.0184-2.0184 5.9112-5.9112h-12.976l-10.957-5.4786-5.4066-10.957v-8.218q1.3697 1.4417 3.0998 3.1718 1.8022 1.7301 3.9648 3.7485 0.79296 0.43252 3.2439 1.658 2.5231 1.2255 6.632 3.316h19.824l8.7226-13.12h-13.48q-3.316-1.1534-7.2808-2.451-3.8927-1.2976-8.6505-2.8835-2.7393-2.5951-5.6228-5.4066l-5.4786-11.101 5.3345-10.741 5.767-5.767 15.931-5.3345h20.977q1.5859 0.36044 7.2087 1.8022 5.6949 1.4417 15.643 3.9648l-7.7854 7.7854q-0.64879 0.5767-1.658 1.5138-0.93714 0.93714-2.3068 2.3789-0.79296 1.2255-1.5138 2.3789-0.72088 1.0813-1.4418 2.1626l-6.0553 9.0109h29.051l10.957 5.4786 5.4066 10.885zm-38.783-41.667q-1.658-1.658-2.5952-2.5231-0.86505-0.93714-1.0813-1.0813-1.0092-0.79296-4.1811-2.451l-6.632-3.3881q-1.3697-0.72087-3.2439-1.3697-1.8743-0.64879-4.1811-1.3697l-7.6413-2.2347-14.922 4.974-4.5415 4.6136v9.4434l4.5415 4.5415 15.066 5.0461h19.968z"/><path d="m275.11 100.08-16.075 5.3345-11.246 11.246-5.767-11.39-9.5876-4.7578-14.778 4.9019-10.885 10.813-5.767-5.6949q-3.5323-1.2255-7.2808-2.451-3.7486-1.2976-7.7854-2.5231h-20.401l14.201-7.1367v-34.242h-8.7226l-6.7762 6.7762v-13.552l5.9112-5.9112h9.5876v-24.51q-1.2255-3.5323-2.451-7.2087-1.2255-3.7485-2.5952-7.8575l-10.164-10.02 11.39 5.6228q0.79296 0.36044 2.1626 1.0813 1.4418 0.72087 3.5323 1.7301l5.4786 5.4066 5.3345 10.813v71.439h13.12v-82.035l16.868-11.246 11.318 11.39v81.891h13.192v-82.035l16.796-11.246 11.39 11.39zm-12.687-53.777v-24.149l-4.4694-4.4694h-8.7226v28.619zm0 20.689v-18.31h-13.192v18.31zm-41.378-20.689v-24.149l-4.3973-4.4694h-8.7226v28.619zm41.378 52.408v-29.34h-13.192v29.051l8.8668 4.4694zm-41.378-31.718v-18.31h-13.12v18.31zm0 31.718v-29.34h-13.12v29.051l8.8668 4.4694z"/><path d="m368.34 77.663-8.4342 17.085-3.5323 3.5323-7.0646 7.1366-10.669 5.1182q-0.50461 0.14417-1.8022 0.64879-1.2976 0.43252-3.4602 1.1534l-10.525 3.5323h-15.787q-1.3697 0-2.7393-0.64879-1.1534-0.50461-1.8022-0.79296-0.64879-0.28835-0.79297-0.36044l-10.597-3.5323q-0.72088-0.50461-2.0184-1.3697t-3.1718-2.1626l-10.597-7.0646q-1.2255-2.2347-2.5952-4.8299-1.2976-2.6672-2.7393-5.8391-0.0721-0.14418-0.79296-2.2347-0.64879-2.0905-2.0184-6.0553l-2.5231-7.4971v-20.977l3.6044-10.453q0.21626-0.72087 0.64879-2.0184 0.43252-1.3697 1.0813-3.316 0.0721-0.28835 5.1903-10.597l7.0646-7.0646q0.50461-0.5767 1.3697-1.4417 0.86505-0.93714 2.1626-2.1626l17.157-8.3621-5.1903 4.974-10.164 10.381q-0.21626 0.21626-1.8022 3.3881l-3.3881 6.632-3.3881 10.164q-0.79296 2.3068-1.1534 3.5323-0.36043 1.2255-0.43252 1.5138v20.329l4.974 15.066 15.066 15.066 15.066 5.0461h15.21l14.49-4.9019v-75.403h-9.4434l-9.8039-4.9019-4.2532 4.1811v51.47q-1.0092 2.3068-2.3789 4.974-1.2976 2.6672-2.9556 5.8391-1.4418 1.4417-3.316 3.2439-1.8022 1.7301-4.0369 3.9648v-65.527q2.0905-1.0092 4.7578-2.3789 2.7393-1.3697 5.9832-3.0998l16.003-15.931 10.885 5.4786h9.5876l9.876-10.092-8.5063 17.301-10.092 5.0461v74.827q2.0905-1.0092 4.1811-2.0905 2.1626-1.0813 4.2532-2.1626 0.5767-0.43252 1.8022-1.658 1.2976-1.2976 3.3881-3.3881z"/><path d="m439.88 69.373h-90.181v-7.5692h90.181z"/><path d="m514.59 100.37h-11.246l-9.876 5.0461-10.741 10.669-10.957-5.4066h-25.375q-1.8743 0.50462-8.6505 2.2347-6.7041 1.658-18.526 4.5415l7.0646-4.6857 14.201-9.4434 15.931-5.3345h14.49v-80.305h-30.133q-2.3068-1.0092-4.974-2.3068-2.6672-1.3697-5.767-3.0277-1.4418-1.4417-3.2439-3.2439-1.8022-1.8743-4.0369-4.109h75.476l10.885 5.4786 5.4786 10.885zm-56.805-26.744q-1.0092 2.3068-2.3789 4.974-1.2976 2.6672-2.9556 5.8391-1.4418 1.4417-3.316 3.2439-1.8743 1.7301-4.109 3.9648v-27.465h-8.6505l-6.8483 6.7762v-13.552l5.9112-5.9112h9.5876v-4.2532q1.0092-2.3068 2.3068-4.974 1.3697-2.6672 3.0277-5.8391 1.4417-1.4417 3.316-3.1718 1.8743-1.8022 4.109-4.0369zm44.117-32.007v-19.464l-4.4694-4.4694h-24.149v23.933l9.4434 4.6857h9.7318zm0 29.844v-27.177l-8.8668 4.3973h-10.957l-8.7947-4.3973v27.177l8.7947-4.4694h10.957zm0 26.961v-24.366l-9.4434-4.6857h-9.7318l-9.4434 4.6857v23.933h4.109q0.14418 0.07209 3.9648 1.2976 3.8206 1.2255 11.246 3.7485z"/><path d="m552.75 1.8993-15.931 15.787h-16.22l-10.092-5.0461-16.364 8.1459 15.931-15.787h16.292l10.02 5.0461zm46.785 98.471h-11.174l-9.876 5.0461q-0.43252 0.28835-10.813 10.669l-10.957-5.4066h-25.375q-1.8743 0.50462-8.6505 2.2347-6.7041 1.658-18.526 4.5415l14.201-9.4434q0.93713-0.64879 2.6672-1.8022 1.8022-1.2255 4.3973-2.8835l10.669-3.5323q0.14417-0.07209 0.79296-0.28835 0.64879-0.28835 1.8022-0.86505 1.3697-0.64879 2.6672-0.64879h20.977q0.93714 0.36044 1.8743 0.72087 1.0092 0.28835 2.0184 0.64879v-47.434q2.5231-1.2255 5.1903-2.5951 2.6672-1.4417 5.5507-2.8835 0.28835-0.21626 2.7393-2.5951 2.451-2.451 7.1366-7.1367v-14.562q-4.5415-4.5415-4.6857-4.6136-0.36044-0.21626-2.7393-1.4417-2.3068-1.2255-6.8483-3.4602l-19.536 9.8039v46.064q-1.0092 2.3068-2.3068 4.974-1.2976 2.6672-2.9556 5.767-1.4418 1.4417-3.316 3.2439-1.8743 1.7301-4.109 3.9648v-49.596q1.0092-2.1626 2.3068-4.8299 1.3697-2.6672 3.0277-5.9112l3.6765-3.5323 1.8022-1.9464 31.718-15.787 11.246 5.6228 5.4066 10.885v11.101q-2.1626 2.3068-4.8299 5.0461-2.6672 2.6672-5.9112 5.8391-2.0184 1.0092-4.1811 2.0905-2.1626 1.0092-4.5415 2.2347l14.057 9.4434 5.4066 10.741zm-72.304-21.554q-1.0092 2.3068-2.3789 4.974-1.2976 2.6672-2.9556 5.767-1.4418 1.4417-3.316 3.2439-1.8022 1.8022-4.0369 4.0369v-32.656h-8.7226l-6.7762 6.7762v-13.552l5.9112-5.9112h9.5876v-4.2532q1.0092-2.3068 2.3068-4.974 1.2976-2.6672 2.9556-5.8391 1.4417-1.4417 3.316-3.1718 1.8743-1.8022 4.109-4.0369zm59.616-11.822v-3.6765l-9.5876-14.345-8.7226 4.4694v13.552zm0 15.499v-13.12h-18.31v13.12zm0 15.931v-13.552h-18.31v15.21l9.0109 2.9556z"/></g><g transform="scale(1.25 .79998)" fill="#373737" stroke="#000" stroke-miterlimit="3" stroke-opacity=".90361" stroke-width="1.9686" style="paint-order:stroke fill markers" aria-label="Super Wide Column Database"><path d="m81.796 161.73q0 1.4328-0.53377 2.5144t-1.4468 1.812q-0.91303 0.71638-2.1351 1.0816t-2.6127 0.36521q-0.94112 0-1.7558-0.15451-0.80066-0.15452-1.4187-0.36522-0.61805-0.22474-1.0394-0.46353-0.40735-0.2388-0.58996-0.4214-0.18261-0.18261-0.26689-0.51973-0.07023-0.35116-0.07023-0.99731 0-0.43544 0.02809-0.73042t0.08428-0.47759q0.07023-0.18261 0.16856-0.25284 0.11237-0.0843 0.25284-0.0843 0.19665 0 0.54782 0.23879 0.36521 0.22475 0.92708 0.50568 0.56187 0.28094 1.3344 0.51973 0.78661 0.22474 1.812 0.22474 0.67424 0 1.208-0.15451 0.53377-0.16856 0.89898-0.46354 0.37926-0.29498 0.57591-0.73042 0.19665-0.43545 0.19665-0.96922 0-0.61805-0.33712-1.0535-0.33712-0.44949-0.88494-0.78661-0.53377-0.35116-1.2221-0.64614-0.68828-0.30903-1.4187-0.64615-0.73042-0.33712-1.4187-0.75852-0.68828-0.43544-1.2361-1.0254-0.53377-0.60401-0.87089-1.4187t-0.33712-1.9525q0-1.3063 0.47758-2.2896 0.49163-0.99731 1.3063-1.6435 0.82875-0.66019 1.9384-0.98326 1.1237-0.32308 2.3739-0.32308 0.64614 0 1.2923 0.0983t1.208 0.26689q0.56186 0.16856 0.99731 0.37926 0.43544 0.2107 0.57591 0.35116 0.14047 0.14047 0.18261 0.23879 0.05619 0.0983 0.08428 0.26689 0.04214 0.15451 0.05619 0.40735 0.01405 0.2388 0.01405 0.60401 0 0.40735-0.02809 0.68828-0.01405 0.28094-0.07023 0.46354-0.04214 0.18261-0.14047 0.26689-0.08428 0.0843-0.23879 0.0843-0.15451 0-0.49163-0.19666-0.33712-0.19665-0.82875-0.42139-0.49163-0.2388-1.1378-0.4214-0.64614-0.19666-1.4187-0.19666-0.604 0-1.0535 0.15452-0.44949 0.14046-0.75852 0.40735-0.29498 0.25284-0.44949 0.61805-0.14047 0.36521-0.14047 0.77257 0 0.604 0.32307 1.0535 0.33712 0.43545 0.88494 0.78661 0.56186 0.33712 1.2642 0.64615 0.70233 0.29498 1.4328 0.6321t1.4328 0.77256q0.70233 0.4214 1.2502 1.0254 0.54782 0.58996 0.88494 1.4047 0.33712 0.80066 0.33712 1.8963z" style="paint-order:stroke fill markers"/><path d="m98.276 166.71q0 0.14047-0.07023 0.25284-0.07023 0.0983-0.25284 0.16856-0.16856 0.0702-0.46354 0.0983-0.28093 0.0421-0.71638 0.0421-0.46354 0-0.75852-0.0421-0.28093-0.0281-0.44949-0.0983-0.16856-0.0702-0.23879-0.16856-0.07023-0.11237-0.07023-0.25284v-1.4468q-1.0395 1.1237-2.121 1.6856-1.0675 0.56187-2.2194 0.56187-1.2923 0-2.1772-0.4214-0.87089-0.4214-1.4187-1.1518-0.53377-0.73043-0.77256-1.6856-0.22475-0.96922-0.22475-2.402v-7.6695q0-0.14047 0.07023-0.2388 0.08428-0.11237 0.28093-0.1826 0.2107-0.0702 0.54782-0.0983 0.35117-0.0421 0.85684-0.0421 0.51973 0 0.85684 0.0421 0.33712 0.0281 0.53377 0.0983 0.2107 0.0702 0.29498 0.1826 0.08428 0.0983 0.08428 0.2388v7.0795q0 0.98326 0.12642 1.503 0.12642 0.51972 0.37926 0.89898 0.26689 0.36522 0.66019 0.57592 0.40735 0.19665 0.94112 0.19665 0.67424 0 1.3485-0.49163 0.68828-0.49164 1.4608-1.4328v-8.3296q0-0.14047 0.07023-0.2388 0.08428-0.11237 0.28093-0.1826 0.2107-0.0702 0.54782-0.0983 0.33712-0.0421 0.85684-0.0421 0.51973 0 0.85684 0.0421 0.33712 0.0281 0.53377 0.0983t0.28093 0.1826q0.08428 0.0983 0.08428 0.2388z" style="paint-order:stroke fill markers"/><path d="m116.43 160.26q0 1.6716-0.36521 3.02-0.35117 1.3344-1.0394 2.2756-0.68829 0.94112-1.7137 1.4468-1.0254 0.50568-2.3458 0.50568-0.54782 0-1.0114-0.11237-0.44949-0.0983-0.88493-0.30903-0.4214-0.22474-0.8428-0.54782-0.4214-0.32307-0.87089-0.75852v5.8996q0 0.14047-0.0843 0.25284t-0.29498 0.18261q-0.19665 0.0843-0.53377 0.12641-0.33712 0.0421-0.85685 0.0421-0.51972 0-0.85684-0.0421t-0.54782-0.12641q-0.19665-0.0702-0.28093-0.18261-0.0843-0.11237-0.0843-0.25284v-17.502q0-0.14047 0.0702-0.2388 0.0702-0.11237 0.23879-0.1826 0.18261-0.0702 0.46354-0.0983 0.29498-0.0421 0.73043-0.0421 0.42139 0 0.70233 0.0421 0.29498 0.0281 0.46354 0.0983 0.1826 0.0702 0.25284 0.1826 0.0702 0.0983 0.0702 0.2388v1.4749q0.54782-0.56186 1.0675-0.98326 0.53377-0.43545 1.0816-0.71638 0.54782-0.29498 1.1237-0.43544 0.58996-0.14047 1.2502-0.14047 1.3766 0 2.3458 0.54782 0.96922 0.53377 1.5732 1.4749 0.61806 0.94113 0.89899 2.1913t0.28093 2.6689zm-3.6802 0.25284q0-0.80066-0.12642-1.5311-0.11237-0.74448-0.40735-1.3204-0.28093-0.57591-0.75852-0.91303-0.46354-0.35116-1.1659-0.35116-0.35116 0-0.70233 0.11237-0.33712 0.0983-0.70233 0.33712-0.35117 0.23879-0.73042 0.61805-0.37926 0.37926-0.80066 0.94112v4.1297q0.74447 0.94113 1.4187 1.4608 0.67424 0.50568 1.4047 0.50568 0.68829 0 1.1659-0.35116 0.49163-0.35117 0.80066-0.91304 0.30902-0.57591 0.44949-1.2923 0.15451-0.71637 0.15451-1.4328z" style="paint-order:stroke fill markers"/><path d="m132.81 160.08q0 0.64615-0.29498 0.95517-0.28093 0.30903-0.78661 0.30903h-7.6273q0 0.80066 0.1826 1.4608 0.19666 0.64614 0.60401 1.1097 0.4214 0.44949 1.0675 0.68829 0.66019 0.23879 1.5732 0.23879 0.92708 0 1.6294-0.12642 0.70234-0.14047 1.208-0.29498 0.51973-0.16856 0.85685-0.29498 0.33712-0.14046 0.54782-0.14046 0.12642 0 0.2107 0.0562 0.0843 0.0421 0.14046 0.16856 0.0562 0.12642 0.0702 0.36521 0.0281 0.22475 0.0281 0.57592 0 0.30902-0.014 0.53377-0.014 0.2107-0.0421 0.36521t-0.0843 0.26689q-0.0562 0.0983-0.15451 0.19665-0.0843 0.0983-0.49163 0.26689-0.40735 0.16855-1.0394 0.33711-0.6321 0.15452-1.4468 0.26689-0.8147 0.12642-1.7418 0.12642-1.6716 0-2.9357-0.4214-1.2502-0.4214-2.093-1.2782-0.8428-0.85685-1.2642-2.1632-0.40735-1.3063-0.40735-3.0622 0-1.6716 0.43544-3.006 0.43545-1.3485 1.2642-2.2756 0.82875-0.94113 2.0087-1.4328 1.194-0.49163 2.6829-0.49163 1.5732 0 2.6829 0.46354 1.1237 0.46354 1.8401 1.2923 0.71638 0.8147 1.0535 1.9384t0.33712 2.4441zm-3.4274-1.0114q0.0421-1.489-0.60401-2.3318-0.63209-0.85684-1.9665-0.85684-0.67424 0-1.1799 0.25284-0.49163 0.25284-0.82875 0.68828-0.32307 0.4214-0.50568 1.0114-0.16856 0.57591-0.19665 1.2361z" style="paint-order:stroke fill markers"/><path d="m145.75 155.34q0 0.50568-0.0281 0.82875t-0.0843 0.50568q-0.0562 0.1826-0.15451 0.25284-0.0843 0.0702-0.22475 0.0702-0.11237 0-0.25284-0.0421-0.14047-0.0562-0.32307-0.11237-0.16856-0.0562-0.37926-0.0983-0.2107-0.0562-0.46354-0.0562-0.29498 0-0.58996 0.12642-0.29498 0.11238-0.61805 0.36522-0.30903 0.25284-0.66019 0.67423-0.33712 0.4214-0.73043 1.0395v7.8099q0 0.14047-0.0843 0.25284-0.0843 0.0983-0.29498 0.16856-0.19665 0.0702-0.53377 0.0983-0.33712 0.0421-0.85684 0.0421-0.51973 0-0.85685-0.0421-0.33712-0.0281-0.54782-0.0983-0.19665-0.0702-0.28093-0.16856-0.0843-0.11237-0.0843-0.25284v-12.53q0-0.14047 0.0702-0.2388 0.0702-0.11237 0.25283-0.1826 0.18261-0.0702 0.46354-0.0983 0.29498-0.0421 0.73043-0.0421 0.44949 0 0.74447 0.0421 0.29498 0.0281 0.44949 0.0983 0.16856 0.0702 0.23879 0.1826 0.0702 0.0983 0.0702 0.2388v1.5592q0.49163-0.70233 0.92708-1.1518 0.43544-0.46354 0.82875-0.73043 0.3933-0.26688 0.78661-0.36521 0.3933-0.11237 0.78661-0.11237 0.18261 0 0.3933 0.0281 0.2107 0.014 0.43545 0.0702 0.22475 0.0421 0.39331 0.11237 0.16856 0.0562 0.23879 0.12642 0.0843 0.0702 0.11237 0.15451 0.0421 0.0843 0.0702 0.23879 0.0281 0.14047 0.0421 0.43545t0.014 0.80066z" style="paint-order:stroke fill markers"/><path d="m177.74 166.24q-0.0843 0.33712-0.23879 0.54782-0.14047 0.19665-0.43545 0.30903-0.29498 0.0983-0.75852 0.12642-0.46354 0.0421-1.1799 0.0421-0.80066 0-1.2923-0.0421-0.47759-0.0281-0.75852-0.12642-0.28093-0.11238-0.40735-0.30903-0.12642-0.2107-0.19666-0.54782l-2.9076-11.518h-0.0281l-2.7531 11.518q-0.0702 0.32308-0.19666 0.53378-0.12642 0.19665-0.40735 0.30902-0.26688 0.11237-0.74447 0.14047-0.46354 0.0421-1.2361 0.0421-0.81471 0-1.3063-0.0421-0.47758-0.0281-0.75852-0.12642-0.28093-0.11238-0.40735-0.30903-0.12642-0.2107-0.2107-0.54782l-4.1297-15.859q-0.12642-0.50568-0.14046-0.78661-0.0141-0.29498 0.15451-0.4495 0.1826-0.15451 0.57591-0.1826 0.40735-0.0421 1.1237-0.0421 0.66019 0 1.0394 0.0281 0.39331 0.014 0.58996 0.0983 0.19665 0.0702 0.26689 0.22474 0.0702 0.14047 0.11237 0.40736l3.1886 13.92h0.014l3.315-13.822q0.0562-0.26688 0.14046-0.43544 0.0983-0.16856 0.30903-0.25284 0.22474-0.0983 0.604-0.12642 0.37926-0.0421 1.0114-0.0421 0.67424 0 1.0675 0.0281 0.40736 0.0281 0.61806 0.12642 0.22474 0.0843 0.32307 0.25284 0.0983 0.16856 0.15451 0.44949l3.4274 13.822h0.0281l3.1886-13.878q0.0421-0.22475 0.11237-0.37926 0.0702-0.16856 0.26689-0.25284 0.19665-0.0983 0.56186-0.12642 0.36521-0.0421 1.0254-0.0421 0.61805 0 0.95517 0.0421 0.35116 0.0281 0.50568 0.1826 0.15451 0.15452 0.12642 0.46354-0.014 0.29498-0.14047 0.81471z" style="paint-order:stroke fill markers"/><path d="m189.99 166.71q0 0.14047-0.0843 0.25284-0.0843 0.0983-0.29497 0.16856-0.19666 0.0702-0.53378 0.0983-0.33712 0.0421-0.85684 0.0421-0.51973 0-0.85685-0.0421-0.33711-0.0281-0.54781-0.0983-0.19666-0.0702-0.28094-0.16856-0.0843-0.11237-0.0843-0.25284v-12.502q0-0.14047 0.0843-0.23879 0.0843-0.11238 0.28094-0.18261 0.2107-0.0843 0.54781-0.12642 0.33712-0.0421 0.85685-0.0421 0.51972 0 0.85684 0.0421t0.53378 0.12642q0.21069 0.0702 0.29497 0.18261 0.0843 0.0983 0.0843 0.23879zm0.26689-16.772q0 1.0676-0.43545 1.4749-0.43544 0.40735-1.6154 0.40735-1.194 0-1.6154-0.3933-0.40735-0.39331-0.40735-1.4187 0-1.0676 0.4214-1.4749 0.43544-0.4214 1.6294-0.4214 1.1799 0 1.6013 0.40736 0.4214 0.3933 0.4214 1.4187z" style="paint-order:stroke fill markers"/><path d="m207.39 166.71q0 0.15452-0.0702 0.26689-0.0702 0.0983-0.2388 0.16856-0.16856 0.0702-0.46354 0.0983-0.28093 0.0281-0.70233 0.0281-0.44949 0-0.73042-0.0281t-0.46354-0.0983q-0.16856-0.0702-0.25284-0.16856-0.0702-0.11237-0.0702-0.26689v-1.3906q-0.96922 1.0394-2.0368 1.6154-1.0535 0.57591-2.3458 0.57591-1.4328 0-2.4301-0.54782-0.98326-0.56186-1.6154-1.503-0.61805-0.94112-0.89899-2.1913-0.28093-1.2642-0.28093-2.6548 0-1.6715 0.35117-3.006 0.36521-1.3344 1.0535-2.2756 0.68829-0.94112 1.7137-1.4468 1.0254-0.50568 2.3598-0.50568 1.0535 0 1.9103 0.43545 0.85684 0.42139 1.6996 1.2502v-6.7845q0-0.14046 0.0702-0.25284 0.0843-0.11237 0.28094-0.1826 0.2107-0.0843 0.54782-0.12642 0.33711-0.0421 0.85684-0.0421t0.85684 0.0421q0.33712 0.0421 0.53378 0.12642 0.19665 0.0702 0.28093 0.1826 0.0843 0.11238 0.0843 0.25284zm-3.5117-8.3718q-0.75852-0.95517-1.4608-1.4608-0.68828-0.50568-1.4468-0.50568-0.68829 0-1.194 0.35117-0.49164 0.33712-0.80066 0.91303-0.29498 0.57591-0.4495 1.2923-0.14046 0.70233-0.14046 1.4468 0 0.78661 0.12642 1.5311 0.12642 0.74448 0.40735 1.3344 0.29498 0.57592 0.77257 0.92708 0.47758 0.35117 1.208 0.35117 0.36521 0 0.70233-0.0983 0.35116-0.11237 0.70233-0.35116 0.36521-0.2388 0.74447-0.61806 0.37926-0.3933 0.82875-0.95517z" style="paint-order:stroke fill markers"/><path d="m224.5 160.08q0 0.64615-0.29498 0.95517-0.28093 0.30903-0.78661 0.30903h-7.6273q0 0.80066 0.1826 1.4608 0.19665 0.64614 0.60401 1.1097 0.4214 0.44949 1.0675 0.68829 0.66019 0.23879 1.5732 0.23879 0.92708 0 1.6294-0.12642 0.70233-0.14047 1.208-0.29498 0.51973-0.16856 0.85685-0.29498 0.33712-0.14046 0.54782-0.14046 0.12642 0 0.2107 0.0562 0.0843 0.0421 0.14046 0.16856 0.0562 0.12642 0.0702 0.36521 0.0281 0.22475 0.0281 0.57592 0 0.30902-0.0141 0.53377-0.014 0.2107-0.0421 0.36521t-0.0843 0.26689q-0.0562 0.0983-0.15451 0.19665-0.0843 0.0983-0.49163 0.26689-0.40736 0.16855-1.0394 0.33711-0.6321 0.15452-1.4468 0.26689-0.8147 0.12642-1.7418 0.12642-1.6716 0-2.9357-0.4214-1.2502-0.4214-2.093-1.2782-0.8428-0.85685-1.2642-2.1632-0.40735-1.3063-0.40735-3.0622 0-1.6716 0.43544-3.006 0.43545-1.3485 1.2642-2.2756 0.82875-0.94113 2.0087-1.4328 1.194-0.49163 2.6829-0.49163 1.5732 0 2.6829 0.46354 1.1237 0.46354 1.8401 1.2923 0.71638 0.8147 1.0535 1.9384t0.33712 2.4441zm-3.4274-1.0114q0.0421-1.489-0.60401-2.3318-0.63209-0.85684-1.9665-0.85684-0.67424 0-1.1799 0.25284-0.49163 0.25284-0.82875 0.68828-0.32308 0.4214-0.50568 1.0114-0.16856 0.57591-0.19665 1.2361z" style="paint-order:stroke fill markers"/><path d="m250.66 164.43q0 0.35116-0.0281 0.604-0.014 0.2388-0.0562 0.4214-0.0421 0.16856-0.11238 0.29498-0.0702 0.12642-0.22474 0.29498-0.15452 0.15451-0.60401 0.40735-0.43544 0.25284-1.0816 0.49163-0.6321 0.22475-1.4608 0.37926-0.8147 0.15452-1.7699 0.15452-1.8682 0-3.3712-0.57591-1.503-0.57592-2.5565-1.7137-1.0535-1.1518-1.6154-2.8655-0.56187-1.7137-0.56187-3.9892 0-2.3177 0.61805-4.1157t1.7277-3.02q1.1097-1.2221 2.6548-1.8542 1.5592-0.6321 3.4274-0.6321 0.75852 0 1.4608 0.12642t1.2923 0.33712q0.604 0.19665 1.0816 0.46354 0.47758 0.26688 0.66019 0.46353 0.19665 0.18261 0.26689 0.30903 0.0702 0.12642 0.11237 0.32307 0.0421 0.19666 0.0562 0.46354 0.0281 0.26689 0.0281 0.66019 0 0.4214-0.0281 0.71638t-0.0983 0.47759q-0.0702 0.1826-0.16856 0.26688-0.0983 0.0843-0.22475 0.0843-0.2107 0-0.53377-0.23879-0.32307-0.25284-0.8428-0.54782-0.50567-0.30902-1.222-0.54782-0.70233-0.25284-1.6856-0.25284-1.0816 0-1.9384 0.4495-0.8428 0.43544-1.4468 1.2642-0.58996 0.81471-0.89898 1.9806-0.30903 1.1659-0.30903 2.6267 0 1.6013 0.32308 2.7812 0.33711 1.1659 0.94112 1.9244 0.61805 0.75852 1.4749 1.1378 0.87089 0.36521 1.9525 0.36521 0.98326 0 1.6996-0.22475 0.71638-0.23879 1.2221-0.51972 0.51972-0.28094 0.84279-0.50568 0.33712-0.22475 0.51973-0.22475 0.14047 0 0.22475 0.0562 0.0843 0.0562 0.14046 0.22474 0.0562 0.16856 0.0843 0.47759 0.0281 0.29498 0.0281 0.80066z" style="paint-order:stroke fill markers"/><path d="m267.76 160.31q0 1.6013-0.4214 2.9217-0.4214 1.3204-1.2782 2.2756-0.85684 0.95517-2.1491 1.4749-1.2923 0.51973-3.02 0.51973-1.6716 0-2.9076-0.46354t-2.0508-1.3485q-0.8147-0.88493-1.208-2.1772-0.3933-1.2923-0.3933-2.9498 0-1.6013 0.4214-2.9217 0.43544-1.3344 1.2923-2.2756 0.85684-0.95517 2.1351-1.4749 1.2923-0.51972 3.02-0.51972 1.6856 0 2.9217 0.46354 1.2361 0.44949 2.0368 1.3344 0.8147 0.88494 1.208 2.1772t0.39331 2.9638zm-3.6381 0.14046q0-0.92708-0.15451-1.6996-0.14047-0.78661-0.49164-1.3625-0.35116-0.57592-0.94112-0.89899-0.57591-0.32307-1.4608-0.32307-0.78661 0-1.3766 0.29498-0.58996 0.28093-0.96922 0.8428-0.37926 0.54781-0.57591 1.3344-0.18261 0.77256-0.18261 1.7699 0 0.92708 0.15452 1.7137 0.15451 0.77257 0.49163 1.3485 0.35116 0.57591 0.94112 0.89898 0.58996 0.30903 1.4608 0.30903 0.80066 0 1.3906-0.28094 0.58996-0.29497 0.96922-0.84279t0.56186-1.3204q0.18261-0.78661 0.18261-1.7839z" style="paint-order:stroke fill markers"/><path d="m276.08 166.71q0 0.14047-0.0843 0.25284-0.0843 0.0983-0.29498 0.16856-0.19665 0.0702-0.53377 0.0983-0.33712 0.0421-0.85685 0.0421-0.51972 0-0.85684-0.0421-0.33712-0.0281-0.54782-0.0983-0.19665-0.0702-0.28093-0.16856-0.0843-0.11237-0.0843-0.25284v-18.471q0-0.14046 0.0843-0.25284 0.0843-0.11237 0.28093-0.1826 0.2107-0.0843 0.54782-0.12642 0.33712-0.0421 0.85684-0.0421 0.51973 0 0.85685 0.0421t0.53377 0.12642q0.2107 0.0702 0.29498 0.1826 0.0843 0.11238 0.0843 0.25284z" style="paint-order:stroke fill markers"/><path d="m293.47 166.71q0 0.14047-0.0702 0.25284-0.0702 0.0983-0.25284 0.16856-0.16856 0.0702-0.46354 0.0983-0.28093 0.0421-0.71638 0.0421-0.46354 0-0.75851-0.0421-0.28094-0.0281-0.4495-0.0983t-0.23879-0.16856q-0.0702-0.11237-0.0702-0.25284v-1.4468q-1.0394 1.1237-2.121 1.6856-1.0676 0.56187-2.2194 0.56187-1.2923 0-2.1772-0.4214-0.87089-0.4214-1.4187-1.1518-0.53377-0.73043-0.77256-1.6856-0.22475-0.96922-0.22475-2.402v-7.6695q0-0.14047 0.0702-0.2388 0.0843-0.11237 0.28094-0.1826 0.2107-0.0702 0.54781-0.0983 0.35117-0.0421 0.85685-0.0421 0.51972 0 0.85684 0.0421 0.33712 0.0281 0.53378 0.0983 0.21069 0.0702 0.29497 0.1826 0.0843 0.0983 0.0843 0.2388v7.0795q0 0.98326 0.12642 1.503 0.12642 0.51972 0.37926 0.89898 0.26689 0.36522 0.66019 0.57592 0.40736 0.19665 0.94113 0.19665 0.67424 0 1.3485-0.49163 0.68828-0.49164 1.4608-1.4328v-8.3296q0-0.14047 0.0702-0.2388 0.0843-0.11237 0.28093-0.1826 0.2107-0.0702 0.54782-0.0983 0.33712-0.0421 0.85684-0.0421 0.51973 0 0.85685 0.0421 0.33712 0.0281 0.53377 0.0983t0.28093 0.1826q0.0843 0.0983 0.0843 0.2388z" style="paint-order:stroke fill markers"/><path d="m318.94 166.71q0 0.14047-0.0843 0.25284-0.0843 0.0983-0.28093 0.16856-0.19665 0.0702-0.53377 0.0983-0.33712 0.0421-0.85685 0.0421-0.53377 0-0.87089-0.0421-0.33712-0.0281-0.54781-0.0983-0.19666-0.0702-0.28094-0.16856-0.0702-0.11237-0.0702-0.25284v-7.4307q0-0.63209-0.12642-1.1518-0.11237-0.51972-0.36521-0.88494-0.2388-0.37926-0.61805-0.57591-0.36522-0.2107-0.88494-0.2107-0.6321 0-1.2782 0.49163-0.64614 0.49164-1.4047 1.4328v8.3296q0 0.14047-0.0843 0.25284-0.0843 0.0983-0.29498 0.16856-0.19665 0.0702-0.53377 0.0983-0.33712 0.0421-0.8428 0.0421-0.51972 0-0.85684-0.0421-0.33712-0.0281-0.54782-0.0983-0.19665-0.0702-0.28093-0.16856-0.0843-0.11237-0.0843-0.25284v-7.4307q0-0.63209-0.12642-1.1518-0.11238-0.51972-0.35117-0.88494-0.23879-0.37926-0.61805-0.57591-0.37926-0.2107-0.88494-0.2107-0.64614 0-1.2923 0.49163-0.64614 0.49164-1.3906 1.4328v8.3296q0 0.14047-0.0843 0.25284-0.0843 0.0983-0.29498 0.16856-0.19666 0.0702-0.53378 0.0983-0.33711 0.0421-0.85684 0.0421t-0.85684-0.0421q-0.33712-0.0281-0.54782-0.0983-0.19666-0.0702-0.28094-0.16856-0.0843-0.11237-0.0843-0.25284v-12.53q0-0.14047 0.0702-0.2388 0.0702-0.11237 0.25284-0.1826 0.1826-0.0702 0.46354-0.0983 0.29498-0.0421 0.73042-0.0421 0.44949 0 0.74447 0.0421 0.29498 0.0281 0.44949 0.0983 0.16856 0.0702 0.2388 0.1826 0.0702 0.0983 0.0702 0.2388v1.4468q1.0394-1.1237 2.0648-1.6856 1.0395-0.56186 2.1632-0.56186 0.77256 0 1.3906 0.16856 0.61805 0.15451 1.0956 0.46354 0.49163 0.29498 0.8428 0.71638 0.35116 0.4214 0.58996 0.94112 0.56186-0.604 1.0956-1.0394 0.54782-0.43545 1.0676-0.70233 0.53377-0.28093 1.0535-0.40735 0.53378-0.14047 1.0816-0.14047 1.2502 0 2.107 0.4214t1.3766 1.1518q0.53377 0.71638 0.75852 1.6856 0.22474 0.96922 0.22474 2.0508z" style="paint-order:stroke fill markers"/><path d="m336.36 166.71q0 0.14047-0.0843 0.25284-0.0843 0.0983-0.28094 0.16856-0.19665 0.0702-0.54781 0.0983-0.33712 0.0421-0.8428 0.0421-0.51973 0-0.87089-0.0421-0.33712-0.0281-0.53377-0.0983-0.19666-0.0702-0.28094-0.16856-0.0843-0.11237-0.0843-0.25284v-7.1497q0-0.91303-0.14046-1.4328-0.12642-0.51972-0.37926-0.88494-0.25284-0.37926-0.66019-0.57591-0.39331-0.2107-0.92708-0.2107-0.67424 0-1.3625 0.49163-0.68829 0.49164-1.4328 1.4328v8.3296q0 0.14047-0.0843 0.25284-0.0843 0.0983-0.29498 0.16856-0.19665 0.0702-0.53377 0.0983-0.33712 0.0421-0.85685 0.0421-0.51972 0-0.85684-0.0421-0.33712-0.0281-0.54782-0.0983-0.19665-0.0702-0.28093-0.16856-0.0843-0.11237-0.0843-0.25284v-12.53q0-0.14047 0.0702-0.2388 0.0702-0.11237 0.25284-0.1826 0.18261-0.0702 0.46354-0.0983 0.29498-0.0421 0.73042-0.0421 0.4495 0 0.74448 0.0421 0.29497 0.0281 0.44949 0.0983 0.16856 0.0702 0.23879 0.1826 0.0702 0.0983 0.0702 0.2388v1.4468q1.0394-1.1237 2.107-1.6856 1.0816-0.56186 2.2475-0.56186 1.2782 0 2.1491 0.4214 0.88494 0.4214 1.4187 1.1518 0.54782 0.71638 0.78661 1.6856 0.2388 0.96922 0.2388 2.3317z" style="paint-order:stroke fill markers"/><path d="m365.62 157.83q0 2.5003-0.66019 4.2842-0.64615 1.7699-1.8682 2.8936-1.222 1.1237-2.9779 1.6575-1.7418 0.51973-4.1578 0.51973h-4.3404q-0.46354 0-0.78661-0.26689-0.30903-0.28093-0.30903-0.89898v-15.845q0-0.61805 0.30903-0.88494 0.32307-0.28093 0.78661-0.28093h4.6635q2.4301 0 4.1157 0.57591 1.6996 0.56186 2.8515 1.6856 1.1659 1.1097 1.7699 2.7531 0.60401 1.6435 0.60401 3.8066zm-3.8207 0.12642q0-1.2923-0.30902-2.402-0.29498-1.1097-0.96922-1.9244-0.66019-0.81471-1.7137-1.2642-1.0394-0.46354-2.7391-0.46354h-1.8682v12.361h1.9244q1.517 0 2.5565-0.39331 1.0394-0.3933 1.7277-1.1799 0.70233-0.80066 1.0394-1.9806 0.35116-1.1799 0.35116-2.7531z" style="paint-order:stroke fill markers"/><path d="m381.1 166.75q0 0.19665-0.14047 0.30903-0.14047 0.11237-0.44949 0.15451-0.29498 0.0562-0.88494 0.0562-0.6321 0-0.92708-0.0562-0.28093-0.0421-0.40735-0.15451-0.11237-0.11238-0.11237-0.30903v-0.99731q-0.77257 0.82875-1.7699 1.2923-0.98326 0.46354-2.1913 0.46354-0.99731 0-1.8401-0.26689-0.82875-0.25284-1.4468-0.75851-0.60401-0.51973-0.94113-1.2782t-0.33712-1.7699q0-1.0956 0.4214-1.8963 0.43545-0.8147 1.2782-1.3344 0.85685-0.53377 2.121-0.78661 1.2642-0.25284 2.9357-0.25284h1.2221v-0.75852q0-0.58996-0.12642-1.0254-0.11237-0.44949-0.39331-0.74447-0.26688-0.29498-0.73042-0.43545-0.44949-0.14046-1.1237-0.14046-0.88494 0-1.5873 0.19665-0.68829 0.19665-1.2221 0.43544-0.53377 0.2388-0.89898 0.43545-0.35117 0.19665-0.57591 0.19665-0.15452 0-0.28094-0.0983-0.11237-0.0983-0.19665-0.28094-0.0702-0.1826-0.11237-0.44949-0.0421-0.26688-0.0421-0.58996 0-0.43544 0.0702-0.68828t0.26689-0.44949q0.19665-0.2107 0.68828-0.4495 0.49163-0.25284 1.1518-0.46354 0.66019-0.21069 1.4328-0.33711 0.78661-0.14047 1.6154-0.14047 1.4749 0 2.5144 0.29498 1.0535 0.28093 1.7277 0.88494 0.67423 0.58996 0.98326 1.5311t0.30903 2.2334zm-3.4695-5.3658h-1.3485q-0.85684 0-1.4608 0.12642-0.604 0.12642-0.98326 0.37926t-0.56187 0.61805q-0.16856 0.35117-0.16856 0.8147 0 0.78662 0.49164 1.2361 0.50567 0.44949 1.3906 0.44949 0.74447 0 1.3625-0.37926 0.63209-0.37926 1.2782-1.1097z" style="paint-order:stroke fill markers"/><path d="m393.76 165.47q0 0.61805-0.0843 0.95517-0.0702 0.32307-0.19665 0.46354-0.12642 0.12642-0.37926 0.23879-0.23879 0.0983-0.57591 0.16856-0.32307 0.0843-0.71638 0.12642-0.37926 0.0421-0.77256 0.0421-1.0535 0-1.8261-0.26689-0.77257-0.26688-1.2782-0.8147-0.50568-0.56187-0.74447-1.4047-0.23879-0.8428-0.23879-1.9946v-6.4193h-1.503q-0.26689 0-0.40735-0.32307-0.14047-0.33712-0.14047-1.1097 0-0.40735 0.0281-0.68829 0.0421-0.28093 0.11238-0.43544 0.0702-0.16856 0.16856-0.23879 0.11237-0.0702 0.25284-0.0702h1.4889v-2.7953q0-0.14046 0.0702-0.25284 0.0843-0.11237 0.28093-0.1826 0.2107-0.0843 0.54782-0.11238 0.35117-0.0421 0.85685-0.0421 0.51972 0 0.85684 0.0421 0.35117 0.0281 0.54782 0.11238 0.19665 0.0702 0.28093 0.1826 0.0843 0.11238 0.0843 0.25284v2.7953h2.725q0.14047 0 0.23879 0.0702 0.11237 0.0702 0.18261 0.23879 0.0702 0.15451 0.0983 0.43544 0.0421 0.28094 0.0421 0.68829 0 0.77256-0.14046 1.1097-0.14047 0.32307-0.40735 0.32307h-2.7391v5.8855q0 1.0254 0.32308 1.5451 0.32307 0.50568 1.1518 0.50568 0.28093 0 0.50568-0.0421 0.22474-0.0562 0.3933-0.11237 0.18261-0.0702 0.29498-0.11237 0.12642-0.0562 0.22475-0.0562 0.0843 0 0.15451 0.0562 0.0843 0.0421 0.12642 0.19665 0.0421 0.14046 0.0702 0.3933 0.0421 0.25284 0.0421 0.64615z" style="paint-order:stroke fill markers"/><path d="m408.69 166.75q0 0.19665-0.14046 0.30903-0.14047 0.11237-0.4495 0.15451-0.29498 0.0562-0.88493 0.0562-0.6321 0-0.92708-0.0562-0.28093-0.0421-0.40735-0.15451-0.11238-0.11238-0.11238-0.30903v-0.99731q-0.77256 0.82875-1.7699 1.2923-0.98327 0.46354-2.1913 0.46354-0.99731 0-1.8401-0.26689-0.82875-0.25284-1.4468-0.75851-0.604-0.51973-0.94112-1.2782t-0.33712-1.7699q0-1.0956 0.4214-1.8963 0.43544-0.8147 1.2782-1.3344 0.85684-0.53377 2.121-0.78661t2.9358-0.25284h1.222v-0.75852q0-0.58996-0.12642-1.0254-0.11237-0.44949-0.3933-0.74447-0.26689-0.29498-0.73043-0.43545-0.44949-0.14046-1.1237-0.14046-0.88493 0-1.5873 0.19665-0.68828 0.19665-1.222 0.43544-0.53377 0.2388-0.89899 0.43545-0.35116 0.19665-0.57591 0.19665-0.15451 0-0.28093-0.0983-0.11237-0.0983-0.19665-0.28094-0.0702-0.1826-0.11238-0.44949-0.0421-0.26688-0.0421-0.58996 0-0.43544 0.0702-0.68828t0.26688-0.44949q0.19665-0.2107 0.68829-0.4495 0.49163-0.25284 1.1518-0.46354 0.66019-0.21069 1.4328-0.33711 0.78661-0.14047 1.6154-0.14047 1.4749 0 2.5144 0.29498 1.0535 0.28093 1.7277 0.88494 0.67424 0.58996 0.98327 1.5311 0.30902 0.94112 0.30902 2.2334zm-3.4695-5.3658h-1.3485q-0.85685 0-1.4608 0.12642-0.60401 0.12642-0.98327 0.37926-0.37925 0.25284-0.56186 0.61805-0.16856 0.35117-0.16856 0.8147 0 0.78662 0.49163 1.2361 0.50568 0.44949 1.3906 0.44949 0.74447 0 1.3625-0.37926 0.6321-0.37926 1.2782-1.1097z" style="paint-order:stroke fill markers"/><path d="m426.82 160.27q0 1.6715-0.36521 3.006-0.36522 1.3344-1.0535 2.2756-0.68829 0.94112-1.6996 1.4468-0.99731 0.50568-2.2756 0.50568-0.6321 0-1.1799-0.12642-0.54782-0.11237-1.0535-0.37926-0.49163-0.26688-0.98327-0.67424-0.47758-0.40735-0.98326-0.98326v1.3625q0 0.15452-0.0843 0.26689-0.0702 0.0983-0.25284 0.16856-0.16856 0.0702-0.46354 0.0983t-0.71638 0.0281q-0.43544 0-0.73042-0.0281-0.28093-0.0281-0.46354-0.0983-0.16856-0.0702-0.23879-0.16856-0.0702-0.11237-0.0702-0.26689v-18.471q0-0.14046 0.0843-0.25284 0.0843-0.11237 0.28094-0.1826 0.2107-0.0843 0.54782-0.12642 0.33712-0.0421 0.85684-0.0421 0.51973 0 0.85684 0.0421 0.33712 0.0421 0.53378 0.12642 0.2107 0.0702 0.29498 0.1826 0.0843 0.11238 0.0843 0.25284v6.925q0.47758-0.47758 0.95517-0.8147 0.47758-0.33712 0.95517-0.54782 0.47758-0.22475 0.98326-0.32307 0.50568-0.0983 1.0676-0.0983 1.3906 0 2.3598 0.56186 0.96922 0.54782 1.5732 1.489 0.61805 0.94112 0.89899 2.2053 0.28093 1.2502 0.28093 2.6408zm-3.6662 0.25283q0-0.80065-0.12642-1.5451-0.11237-0.74448-0.40735-1.3204t-0.77257-0.91303q-0.46354-0.35116-1.1799-0.35116-0.35117 0-0.68829 0.0983t-0.70233 0.33712q-0.35117 0.23879-0.73043 0.61805t-0.80065 0.94113v4.1578q0.74447 0.95517 1.4187 1.4608 0.68828 0.49163 1.4328 0.49163 0.68829 0 1.1659-0.35116 0.47759-0.35117 0.78661-0.91304 0.32308-0.56186 0.46354-1.2782 0.14047-0.71638 0.14047-1.4328z" style="paint-order:stroke fill markers"/><path d="m442.3 166.75q0 0.19665-0.14047 0.30903-0.14046 0.11237-0.44949 0.15451-0.29498 0.0562-0.88494 0.0562-0.63209 0-0.92707-0.0562-0.28094-0.0421-0.40736-0.15451-0.11237-0.11238-0.11237-0.30903v-0.99731q-0.77256 0.82875-1.7699 1.2923-0.98327 0.46354-2.1913 0.46354-0.99731 0-1.8401-0.26689-0.82875-0.25284-1.4468-0.75851-0.604-0.51973-0.94112-1.2782t-0.33712-1.7699q0-1.0956 0.4214-1.8963 0.43544-0.8147 1.2782-1.3344 0.85684-0.53377 2.121-0.78661t2.9358-0.25284h1.222v-0.75852q0-0.58996-0.12642-1.0254-0.11237-0.44949-0.3933-0.74447-0.26689-0.29498-0.73043-0.43545-0.44949-0.14046-1.1237-0.14046-0.88494 0-1.5873 0.19665-0.68828 0.19665-1.222 0.43544-0.53378 0.2388-0.89899 0.43545-0.35116 0.19665-0.57591 0.19665-0.15451 0-0.28093-0.0983-0.11238-0.0983-0.19666-0.28094-0.0702-0.1826-0.11237-0.44949-0.0421-0.26688-0.0421-0.58996 0-0.43544 0.0702-0.68828t0.26688-0.44949q0.19665-0.2107 0.68829-0.4495 0.49163-0.25284 1.1518-0.46354 0.66019-0.21069 1.4328-0.33711 0.78661-0.14047 1.6154-0.14047 1.4749 0 2.5144 0.29498 1.0535 0.28093 1.7277 0.88494 0.67424 0.58996 0.98327 1.5311 0.30902 0.94112 0.30902 2.2334zm-3.4695-5.3658h-1.3485q-0.85685 0-1.4608 0.12642-0.60401 0.12642-0.98327 0.37926t-0.56186 0.61805q-0.16856 0.35117-0.16856 0.8147 0 0.78662 0.49163 1.2361 0.50568 0.44949 1.3906 0.44949 0.74447 0 1.3625-0.37926 0.6321-0.37926 1.2782-1.1097z" style="paint-order:stroke fill markers"/><path d="m456.63 163.17q0 1.0676-0.40735 1.8822-0.39331 0.8147-1.1237 1.3625-0.73042 0.54782-1.7277 0.81471-0.99731 0.28093-2.1632 0.28093-0.70233 0-1.3485-0.11237-0.6321-0.0983-1.1378-0.25284-0.50567-0.16856-0.84279-0.33712t-0.49164-0.30903q-0.15451-0.15451-0.23879-0.46354-0.0843-0.32307-0.0843-0.94112 0-0.40735 0.0281-0.64615 0.0281-0.25283 0.0843-0.3933 0.0562-0.15451 0.14046-0.19665 0.0843-0.0562 0.2107-0.0562 0.15451 0 0.44949 0.18261 0.30903 0.16856 0.75852 0.37925 0.44949 0.2107 1.0394 0.39331 0.60401 0.18261 1.3625 0.18261 0.47759 0 0.8428-0.0983 0.37926-0.0983 0.64615-0.28093 0.28093-0.18261 0.4214-0.46354 0.14046-0.28093 0.14046-0.64615 0-0.4214-0.26688-0.71637-0.25284-0.30903-0.68829-0.53378-0.4214-0.22474-0.96922-0.4214-0.53377-0.19665-1.1097-0.43544-0.56186-0.23879-1.1097-0.54782-0.53378-0.30903-0.96922-0.75852-0.4214-0.44949-0.68829-1.0816-0.25283-0.6321-0.25283-1.517 0-0.89899 0.35116-1.6435 0.35117-0.75852 1.0114-1.2923t1.6013-0.82875q0.95518-0.29498 2.1351-0.29498 0.58996 0 1.1378 0.0843 0.56186 0.0843 1.0114 0.2107 0.44949 0.12642 0.75851 0.28093 0.30903 0.14047 0.43545 0.25284 0.14047 0.0983 0.19665 0.2107 0.0562 0.0983 0.0843 0.25284 0.0281 0.14047 0.0421 0.36521 0.0281 0.2107 0.0281 0.53377 0 0.37926-0.0281 0.61806-0.014 0.23879-0.0702 0.37925-0.0421 0.14047-0.12642 0.19666-0.0843 0.0421-0.19665 0.0421-0.12642 0-0.39331-0.14047-0.26688-0.15451-0.67424-0.32307-0.3933-0.16856-0.92707-0.30903-0.51973-0.15451-1.194-0.15451-0.47758 0-0.82875 0.0983t-0.57591 0.28093q-0.22475 0.18261-0.33712 0.43544-0.11237 0.2388-0.11237 0.51973 0 0.43545 0.26688 0.73042 0.26689 0.29498 0.70233 0.51973 0.43545 0.22475 0.98327 0.4214 0.56186 0.19665 1.1237 0.43544 0.57591 0.22475 1.1237 0.53378 0.56186 0.30902 0.99731 0.75851 0.43545 0.4495 0.70233 1.0816 0.26689 0.61806 0.26689 1.4749z" style="paint-order:stroke fill markers"/><path d="m472.84 160.08q0 0.64615-0.29498 0.95517-0.28093 0.30903-0.78661 0.30903h-7.6273q0 0.80066 0.18261 1.4608 0.19665 0.64614 0.604 1.1097 0.4214 0.44949 1.0676 0.68829 0.66019 0.23879 1.5732 0.23879 0.92708 0 1.6294-0.12642 0.70233-0.14047 1.208-0.29498 0.51972-0.16856 0.85684-0.29498 0.33712-0.14046 0.54782-0.14046 0.12642 0 0.2107 0.0562 0.0843 0.0421 0.14047 0.16856 0.0562 0.12642 0.0702 0.36521 0.0281 0.22475 0.0281 0.57592 0 0.30902-0.014 0.53377-0.014 0.2107-0.0421 0.36521t-0.0843 0.26689q-0.0562 0.0983-0.15451 0.19665-0.0843 0.0983-0.49164 0.26689-0.40735 0.16855-1.0394 0.33711-0.6321 0.15452-1.4468 0.26689-0.81471 0.12642-1.7418 0.12642-1.6716 0-2.9358-0.4214-1.2502-0.4214-2.093-1.2782-0.84279-0.85685-1.2642-2.1632-0.40736-1.3063-0.40736-3.0622 0-1.6716 0.43545-3.006 0.43545-1.3485 1.2642-2.2756 0.82875-0.94113 2.0087-1.4328 1.194-0.49163 2.6829-0.49163 1.5732 0 2.6829 0.46354 1.1237 0.46354 1.8401 1.2923 0.71637 0.8147 1.0535 1.9384t0.33712 2.4441zm-3.4274-1.0114q0.0421-1.489-0.604-2.3318-0.6321-0.85684-1.9665-0.85684-0.67424 0-1.1799 0.25284-0.49163 0.25284-0.82875 0.68828-0.32307 0.4214-0.50568 1.0114-0.16856 0.57591-0.19665 1.2361z" style="paint-order:stroke fill markers"/></g><g transform="scale(1.1165 .89568)" fill="#1e1e1e" stroke="#000" stroke-linejoin="round" stroke-miterlimit="13" stroke-opacity=".90361" stroke-width=".63918" style="paint-order:stroke fill markers" aria-label="WWW.SWCDB.ORG"><path d="m227.37 154.36h2.0156l0.83594 8.5625 1.0078-5.5391h1.9141l1.1719 5.5391 0.65625-8.5625h2.0312l-1.3438 11.664h-2.1484l-1.3281-6.125-1.2422 6.125h-2.1328z" style="paint-order:stroke fill markers"/><path d="m239.44 154.36h2.0156l0.83593 8.5625 1.0078-5.5391h1.9141l1.1719 5.5391 0.65625-8.5625h2.0312l-1.3438 11.664h-2.1484l-1.3281-6.125-1.2422 6.125h-2.1328z" style="paint-order:stroke fill markers"/><path d="m251.5 154.36h2.0156l0.83594 8.5625 1.0078-5.5391h1.9141l1.1719 5.5391 0.65625-8.5625h2.0312l-1.3438 11.664h-2.1484l-1.3281-6.125-1.2422 6.125h-2.1328z" style="paint-order:stroke fill markers"/><path d="m267.07 163.16h2.6016v2.8672h-2.6016z" style="paint-order:stroke fill markers"/><path d="m279.61 160.91q-1.7422-0.66406-2.3594-1.3906-0.61719-0.73438-0.61719-1.9688 0-1.5859 1.0156-2.4922 1.0156-0.90625 2.7891-0.90625 0.80469 0 1.6094 0.1875 0.80469 0.17969 1.5938 0.53906v2.25q-0.74218-0.52343-1.5078-0.79687-0.76562-0.27344-1.5156-0.27344-0.83594 0-1.2812 0.33594-0.44532 0.33594-0.44532 0.96094 0 0.48437 0.32032 0.80468 0.32812 0.3125 1.3594 0.69532l0.99219 0.375q1.4062 0.51562 2.0703 1.3672 0.66406 0.85157 0.66406 2.1484 0 1.7656-1.0469 2.6406-1.0391 0.86718-3.1484 0.86718-0.86719 0-1.7422-0.21093-0.86718-0.20313-1.6797-0.60938v-2.3828q0.92187 0.65625 1.7812 0.97656 0.86718 0.32031 1.7109 0.32031 0.85157 0 1.3203-0.38281 0.46875-0.39062 0.46875-1.0859 0-0.52343-0.3125-0.91406-0.3125-0.39844-0.90625-0.625z" style="paint-order:stroke fill markers"/><path d="m287.68 154.36h2.0156l0.83594 8.5625 1.0078-5.5391h1.9141l1.1719 5.5391 0.65625-8.5625h2.0312l-1.3438 11.664h-2.1484l-1.3281-6.125-1.2422 6.125h-2.1328z" style="paint-order:stroke fill markers"/><path d="m308.19 165.69q-0.54687 0.28125-1.1484 0.42188-0.60157 0.14062-1.2656 0.14062-2.3594 0-3.6016-1.5547-1.2422-1.5547-1.2422-4.4922 0-2.9453 1.2422-4.5t3.6016-1.5547q0.66406 0 1.2734 0.14063 0.60937 0.14062 1.1406 0.42187v2.5625q-0.59375-0.54687-1.1562-0.79687-0.55468-0.25782-1.1484-0.25782-1.2656 0-1.9141 1.0078-0.64062 1-0.64062 2.9766 0 1.9688 0.64062 2.9766 0.64844 1 1.9141 1 0.59375 0 1.1484-0.25 0.5625-0.25781 1.1562-0.80469z" style="paint-order:stroke fill markers"/><path d="m315.18 156.44v7.5078h0.625q1.3594 0 1.9375-0.85157 0.57812-0.85937 0.57812-2.9141 0-2.0391-0.57812-2.8906-0.57813-0.85157-1.9375-0.85157zm-2.3047-2.0781h2.4688q2.8594 0 4.1172 1.3672 1.2578 1.3594 1.2578 4.4531 0 3.1016-1.2578 4.4766-1.2578 1.3672-4.1172 1.3672h-2.4688z" style="paint-order:stroke fill markers"/><path d="m327.07 160.73v3.4531h1.5312q1.1016 0 1.5391-0.375 0.44531-0.375 0.44531-1.3047 0-0.94531-0.46094-1.3594t-1.5234-0.41406zm0-4.5469v2.7109h1.5312q0.875 0 1.2422-0.3125 0.375-0.3125 0.375-1.0312t-0.38281-1.0391q-0.375-0.32813-1.2344-0.32813zm-2.2266-1.8359h3.7578q1.9453 0 2.9219 0.74219 0.98437 0.73438 0.98437 2.2031 0 1.125-0.57812 1.7578-0.57813 0.63281-1.6953 0.73437 1.3359 0.13282 2.0078 0.89844 0.67969 0.76563 0.67969 2.1406 0 1.6875-1.0156 2.4453-1.0156 0.75781-3.3047 0.75781h-3.7578z" style="paint-order:stroke fill markers"/><path d="m339.44 163.16h2.6016v2.8672h-2.6016z" style="paint-order:stroke fill markers"/><path d="m352.8 156.22q-0.88281 0-1.2891 0.94532-0.40625 0.9375-0.40625 3.0391 0 2.0938 0.40625 3.0391 0.40625 0.9375 1.2891 0.9375 0.89062 0 1.2969-0.9375 0.40625-0.94531 0.40625-3.0391 0-2.1016-0.40625-3.0391-0.40625-0.94532-1.2969-0.94532zm-4.0938 3.9844q0-2.9922 1.0312-4.5234 1.0391-1.5312 3.0625-1.5312 2.0312 0 3.0625 1.5312 1.0391 1.5312 1.0391 4.5234 0 2.9844-1.0391 4.5156-1.0312 1.5312-3.0625 1.5312-2.0234 0-3.0625-1.5312-1.0312-1.5312-1.0312-4.5156z" style="paint-order:stroke fill markers"/><path d="m366.36 160.52q0.34375 0.0703 0.59375 0.32812 0.25781 0.25 0.625 0.98438l2.1094 4.1953h-2.5312l-1.4062-2.9453q-0.0625-0.125-0.16406-0.34375-0.61719-1.3203-1.4531-1.3203h-0.73438v4.6094h-2.3047v-11.664h3.3281q2.25 0 3.2266 0.79687 0.98438 0.79688 0.98438 2.5938 0 1.2031-0.58594 1.9141-0.58594 0.71093-1.6875 0.85156zm-2.9609-4.2188v3.1797h1.0859q0.94531 0 1.3516-0.36719 0.41406-0.375 0.41406-1.2266 0-0.85157-0.40625-1.2188-0.40625-0.36719-1.3594-0.36719z" style="paint-order:stroke fill markers"/><path d="m378.93 163.92v-2.2266h-1.5781v-1.9375h3.5938v5.3438q-0.66406 0.57032-1.4688 0.86719-0.79687 0.28906-1.7109 0.28906-2.2656 0-3.5-1.5703-1.2344-1.5781-1.2344-4.4766 0-2.9453 1.2422-4.5 1.25-1.5547 3.6016-1.5547 0.70312 0 1.3828 0.20313 0.67969 0.19531 1.2734 0.57031v2.5547q-0.48438-0.625-1.1172-0.9375-0.625-0.32032-1.375-0.32032-1.3125 0-1.9609 0.99219-0.64843 0.98438-0.64843 2.9922 0 1.9453 0.625 2.9609 0.625 1.0156 1.8203 1.0156 0.35937 0 0.625-0.0625 0.26562-0.0703 0.42969-0.20312z" style="paint-order:stroke fill markers"/></g></g></svg>
