<svg width="1014" height="278" fill="#2980b9" version="1.1" viewBox="0 0 676 185.33" xmlns="http://www.w3.org/2000/svg"><defs><filter id="filter3777" x="-.0086633" y="-.0086633" width="1.0173" height="1.0173" color-interpolation-filters="sRGB"><feGaussianBlur stdDeviation="0.08542958"/></filter></defs><path d="m0.13092 0.26406h93.564v94.988h-93.564z" fill="none" stroke-width="3.928"/><path transform="matrix(3.8861 0 0 3.9452 .27975 .41511)" d="m0.16674 0.16674h23.667v23.667h-23.667z" fill="none" filter="url(#filter3777)" opacity=".1891" style="mix-blend-mode:normal;paint-order:markers stroke fill"/><g transform="scale(.98613 1.0141)" fill="#000" stroke="#972b2b" stroke-opacity=".64257" stroke-width=".26187" aria-label="SWC-DB"><path d="m140.71 84.553-7.0002 9.2058-14 18.699q-1.2466 1.9179-3.5481 5.37-2.3014 3.3563-5.6577 8.5345l-18.891 28.193-21.384-7.192h-33.946q-2.4932 0.67125-11.507 2.9727-8.9181 2.2056-24.645 6.0413l19.083-12.562q1.3425-1.0548 3.644-2.5891 2.3973-1.6302 5.7536-3.644 0.19179-0.0959 7.0961-1.822 7.0002-1.822 20.809-5.2742h21.001q10.357 3.3563 21.001 6.9043l-0.95894 2.7809 12.946-19.658q2.2056-2.7809 6.7126-9.877l6.6166-20.042v-12.946q-5.4659-5.4659-6.2331-6.0413-0.47947-0.28768-3.7398-1.9179-3.2604-1.7261-9.3976-4.7947h-33.275l-11.507 17.453h31.933l7.8633 7.8633v7.8633l-9.9729 20.042v-12.562l-12.562-6.2331h-26.563q-2.7809 2.9727-6.1372 6.329-3.2604 3.3563-7.192 7.192l-14.288 7.0961h-8.9181v-12.178l8.9181 8.6304q5.2741-2.3973 12.37-6.329 0.38357-0.19179 3.0686-2.8768 2.685-2.685 7.8633-7.8633h-17.261l-14.576-7.2879-7.192-14.576v-10.932q1.822 1.9179 4.1234 4.2193 2.3973 2.3014 5.2741 4.9865 1.0548 0.57536 4.3152 2.2056 3.3563 1.6302 8.8222 4.4111h26.371l11.603-17.453h-17.932q-4.4111-1.5343-9.6852-3.2604-5.1783-1.7261-11.507-3.8357-3.644-3.4522-7.4797-7.192l-7.2879-14.768 7.0961-14.288 7.6715-7.6715 21.192-7.0961h27.905q2.1097 0.47947 9.5894 2.3973 7.5756 1.9179 20.809 5.2741l-10.357 10.357q-0.86304 0.76715-2.2056 2.0138-1.2466 1.2466-3.0686 3.1645-1.0548 1.6302-2.0138 3.1645-0.95894 1.4384-1.9179 2.8768l-8.0551 11.987h38.645l14.576 7.2879 7.192 14.48zm-51.591-55.426q-2.2056-2.2056-3.4522-3.3563-1.1507-1.2466-1.4384-1.4384-1.3425-1.0548-5.5618-3.2604l-8.8222-4.507q-1.822-0.95894-4.3152-1.822-2.4932-0.86304-5.5618-1.822l-10.165-2.9727-19.85 6.6167-6.0413 6.1372v12.562l6.0413 6.0413 20.042 6.7125h26.563z"/><path d="m253.8 133.27-21.384 7.0961-14.959 14.959-7.6715-15.151-12.754-6.329-19.658 6.5208-14.48 14.384-7.6715-7.5756q-4.6988-1.6302-9.6852-3.2604-4.9865-1.7261-10.356-3.3563h-27.138l18.891-9.4935v-45.549h-11.603l-9.014 9.014v-18.028l7.8633-7.8633h12.754v-32.604q-1.6302-4.6988-3.2604-9.5894-1.6302-4.9865-3.4522-10.452l-13.521-13.329 15.151 7.4797q1.0548 0.47947 2.8768 1.4384 1.9179 0.95894 4.6988 2.3014l7.2879 7.192 7.0961 14.384v95.031h17.453v-109.13l22.439-14.959 15.055 15.151v108.94h17.549v-109.13l22.343-14.959 15.151 15.151zm-16.877-71.537v-32.124l-5.9454-5.9454h-11.603v38.07zm0 27.521v-24.357h-17.549v24.357zm-55.043-27.521v-32.124l-5.8495-5.9454h-11.603v38.07zm55.043 69.715v-39.029h-17.549v38.645l11.795 5.9454zm-55.043-42.193v-24.357h-17.453v24.357zm0 42.193v-39.029h-17.453v38.645l11.795 5.9454z"/><path d="m377.83 103.44-11.22 22.727-4.6988 4.6988-9.3976 9.4935-14.192 6.8084q-0.67125 0.19179-2.3973 0.86304-1.7261 0.57537-4.6029 1.5343l-14 4.6988h-21.001q-1.822 0-3.644-0.86305-1.5343-0.67125-2.3973-1.0548-0.86304-0.38357-1.0548-0.47946l-14.096-4.6988q-0.95894-0.67125-2.685-1.822-1.7261-1.1507-4.2193-2.8768l-14.096-9.3976q-1.6302-2.9727-3.4522-6.4249-1.7261-3.5481-3.644-7.7674-0.0959-0.19178-1.0548-2.9727-0.86304-2.7809-2.685-8.0551l-3.3563-9.9729v-27.905l4.7947-13.905q0.28768-0.95894 0.86304-2.685 0.57537-1.822 1.4384-4.4111 0.0959-0.38357 6.9043-14.096l9.3976-9.3976q0.67126-0.76715 1.822-1.9179 1.1507-1.2466 2.8768-2.8768l22.823-11.124-6.9043 6.6167-13.521 13.809q-0.28769 0.28768-2.3973 4.507l-4.507 8.8222-4.507 13.521q-1.0548 3.0686-1.5343 4.6988-0.47947 1.6302-0.57537 2.0138v27.042l6.6167 20.042 20.042 20.042 20.042 6.7126h20.234l19.275-6.5208v-100.3h-12.562l-13.042-6.5208-5.6577 5.5618v68.468q-1.3425 3.0686-3.1645 6.6167-1.7261 3.5481-3.9316 7.7674-1.9179 1.9179-4.4111 4.3152-2.3973 2.3014-5.37 5.2741v-87.167q2.7809-1.3425 6.329-3.1645 3.644-1.822 7.9592-4.1234l21.288-21.192 14.48 7.2879h12.754l13.137-13.425-11.315 23.014-13.425 6.7125v99.538q2.7809-1.3425 5.5618-2.7809 2.8768-1.4384 5.6577-2.8768 0.76715-0.57536 2.3973-2.2056 1.7261-1.7261 4.507-4.507z"/><path d="m472.99 92.416h-119.96v-10.069h119.96z"/><path d="m572.37 133.65h-14.959l-13.137 6.7126-14.288 14.192-14.576-7.192h-33.755q-2.4932 0.67125-11.507 2.9727-8.9181 2.2056-24.645 6.0413l9.3976-6.2331 18.891-12.562 21.192-7.0961h19.275v-106.83h-40.084q-3.0686-1.3425-6.6167-3.0686-3.5481-1.822-7.6715-4.0275-1.9179-1.9179-4.3152-4.3152-2.3973-2.4932-5.37-5.4659h100.4l14.48 7.2879 7.2879 14.48zm-75.564-35.577q-1.3425 3.0686-3.1645 6.6167-1.7261 3.5481-3.9316 7.7674-1.9179 1.9179-4.4111 4.3152-2.4932 2.3014-5.4659 5.2741v-36.535h-11.507l-9.1099 9.014v-18.028l7.8633-7.8633h12.754v-5.6577q1.3425-3.0686 3.0686-6.6167 1.822-3.5481 4.0275-7.7674 1.9179-1.9179 4.4111-4.2193 2.4932-2.3973 5.4659-5.37zm58.687-42.577v-25.891l-5.9454-5.9454h-32.124v31.837l12.562 6.2331h12.946zm0 39.7v-36.152l-11.795 5.8495h-14.576l-11.699-5.8495v36.152l11.699-5.9454h14.576zm0 35.864v-32.412l-12.562-6.2331h-12.946l-12.562 6.2331v31.837h5.4659q0.19179 0.0959 5.2742 1.7261t14.959 4.9865z"/><path d="m623.13 2.6597-21.192 21.001h-21.576l-13.425-6.7125-21.768 10.836 21.192-21.001h21.672l13.329 6.7125zm62.235 130.99h-14.864l-13.137 6.7126q-0.57536 0.38357-14.384 14.192l-14.576-7.192h-33.755q-2.4932 0.67125-11.507 2.9727-8.9181 2.2056-24.645 6.0413l18.891-12.562q1.2466-0.86304 3.5481-2.3973 2.3973-1.6302 5.8495-3.8357l14.192-4.6988q0.19179-0.0959 1.0548-0.38357 0.86304-0.38358 2.3973-1.1507 1.822-0.86305 3.5481-0.86305h27.905q1.2466 0.47947 2.4932 0.95894 1.3425 0.38357 2.685 0.86304v-63.098q3.3563-1.6302 6.9043-3.4522 3.5481-1.9179 7.3838-3.8357 0.38357-0.28768 3.644-3.4522 3.2604-3.2604 9.4935-9.4935v-19.37q-6.0413-6.0413-6.2331-6.1372-0.47946-0.28768-3.644-1.9179-3.0686-1.6302-9.1099-4.6029l-25.987 13.042v61.276q-1.3425 3.0686-3.0686 6.6167-1.7261 3.5481-3.9316 7.6715-1.9179 1.9179-4.4111 4.3152-2.4932 2.3014-5.4659 5.2741v-65.975q1.3425-2.8768 3.0686-6.4249 1.822-3.5481 4.0275-7.8633l4.8906-4.6988 2.3973-2.5891 42.193-21.001 14.959 7.4797 7.192 14.48v14.768q-2.8768 3.0686-6.4249 6.7125-3.5481 3.5481-7.8633 7.7674-2.685 1.3425-5.5618 2.7809-2.8768 1.3425-6.0413 2.9727l18.699 12.562 7.192 14.288zm-96.181-28.672q-1.3425 3.0686-3.1645 6.6166-1.7261 3.5481-3.9316 7.6715-1.9179 1.9179-4.4111 4.3152-2.3973 2.3973-5.37 5.37v-43.44h-11.603l-9.014 9.014v-18.028l7.8633-7.8633h12.754v-5.6577q1.3425-3.0686 3.0686-6.6167 1.7261-3.5481 3.9316-7.7674 1.9179-1.9179 4.4111-4.2193 2.4932-2.3973 5.4659-5.37zm79.304-15.727v-4.8906l-12.754-19.083-11.603 5.9454v18.028zm0 20.617v-17.453h-24.357v17.453zm0 21.192v-18.028h-24.357v20.234l11.987 3.9316z"/></g><g transform="scale(1.2472 .80181)" fill="#373737" stroke="#000" stroke-miterlimit="3" stroke-opacity=".90361" stroke-width="2.6187" style="paint-order:stroke fill markers" aria-label="Super Wide Column Database"><path d="m20.13 215.31q0 1.9059-0.71005 3.3447-0.71005 1.4388-1.9246 2.4104-1.2146 0.95297-2.8402 1.4388t-3.4755 0.48582q-1.2519 0-2.3357-0.20554-1.0651-0.20554-1.8872-0.48582-0.82216-0.29897-1.3827-0.61662-0.54188-0.31766-0.78479-0.56057t-0.35503-0.69137q-0.093428-0.46713-0.093428-1.3267 0-0.57925 0.037371-0.97165 0.037371-0.39239 0.11211-0.63531 0.093428-0.24291 0.22423-0.33634 0.14948-0.11211 0.33634-0.11211 0.2616 0 0.72874 0.31765 0.48582 0.29897 1.2332 0.67268t1.7751 0.69137q1.0464 0.29897 2.4104 0.29897 0.89691 0 1.607-0.20554 0.71005-0.22423 1.1959-0.61663 0.50451-0.39239 0.76611-0.97164 0.2616-0.57926 0.2616-1.2893 0-0.82216-0.44845-1.4014-0.44845-0.59794-1.1772-1.0464-0.71005-0.46714-1.6256-0.85954-0.91559-0.41108-1.8872-0.85953-0.97165-0.44846-1.8872-1.009-0.91559-0.57926-1.6443-1.364-0.71005-0.80348-1.1585-1.8872-0.44845-1.0838-0.44845-2.5973 0-1.7378 0.63531-3.0457 0.65399-1.3267 1.7378-2.1862 1.1024-0.87822 2.5786-1.308 1.4948-0.42977 3.1579-0.42977 0.85954 0 1.7191 0.1308t1.607 0.35502q0.74742 0.22423 1.3267 0.50451 0.57925 0.28029 0.76611 0.46714 0.18686 0.18686 0.24291 0.31766 0.07474 0.1308 0.11211 0.35502 0.05606 0.20554 0.07474 0.54188 0.01868 0.31766 0.01868 0.80348 0 0.54188-0.03737 0.91559-0.01868 0.37371-0.09343 0.61663-0.05606 0.24291-0.18686 0.35502-0.11211 0.11212-0.31765 0.11212t-0.65399-0.2616q-0.44845-0.2616-1.1024-0.56057-0.65399-0.31765-1.5135-0.56056-0.85954-0.2616-1.8872-0.2616-0.80348 0-1.4014 0.20554-0.59794 0.18685-1.009 0.54188-0.3924 0.33634-0.59794 0.82216-0.18686 0.48583-0.18686 1.0277 0 0.80348 0.42977 1.4014 0.44845 0.57926 1.1772 1.0464 0.74742 0.44845 1.6817 0.85953 0.93428 0.3924 1.9059 0.84085 0.97165 0.44845 1.9059 1.0277 0.93428 0.56056 1.663 1.364 0.72874 0.78479 1.1772 1.8686 0.44845 1.0651 0.44845 2.5226z" style="paint-order:stroke fill markers"/><path d="m42.053 221.93q0 0.18685-0.09343 0.33634-0.09343 0.1308-0.33634 0.22422-0.22423 0.0934-0.61662 0.1308-0.37371 0.0561-0.95296 0.0561-0.61662 0-1.009-0.0561-0.37371-0.0374-0.59794-0.1308-0.22423-0.0934-0.31765-0.22422-0.09343-0.14949-0.09343-0.33634v-1.9246q-1.3827 1.4948-2.8215 2.2423-1.4201 0.74742-2.9523 0.74742-1.7191 0-2.8963-0.56056-1.1585-0.56057-1.8872-1.5322-0.71005-0.97165-1.0277-2.2423-0.29897-1.2893-0.29897-3.1952v-10.202q0-0.18686 0.09343-0.31766 0.11211-0.14948 0.37371-0.24291 0.28028-0.0934 0.72874-0.1308 0.46714-0.056 1.1398-0.056 0.69136 0 1.1398 0.056 0.44845 0.0374 0.71005 0.1308 0.28028 0.0934 0.3924 0.24291 0.11211 0.1308 0.11211 0.31766v9.4175q0 1.308 0.16817 1.9994 0.16817 0.69136 0.50451 1.1959 0.35503 0.48583 0.87822 0.76611 0.54188 0.2616 1.2519 0.2616 0.89691 0 1.7938-0.654 0.91559-0.65399 1.9433-1.9059v-11.081q0-0.18686 0.09343-0.31766 0.11211-0.14948 0.37371-0.24291 0.28028-0.0934 0.72874-0.1308 0.44845-0.056 1.1398-0.056 0.69136 0 1.1398 0.056 0.44845 0.0374 0.71005 0.1308t0.37371 0.24291q0.11211 0.1308 0.11211 0.31766z" style="paint-order:stroke fill markers"/><path d="m66.199 213.35q0 2.2236-0.48582 4.0174-0.46714 1.7751-1.3827 3.0271t-2.2796 1.9246-3.1205 0.67268q-0.72874 0-1.3454-0.14948-0.59794-0.1308-1.1772-0.41108-0.56057-0.29897-1.1211-0.72874-0.56057-0.42977-1.1585-1.009v7.8479q0 0.18686-0.11211 0.33634-0.11211 0.14949-0.3924 0.24291-0.2616 0.11212-0.71005 0.16817-0.44845 0.0561-1.1398 0.0561t-1.1398-0.0561q-0.44845-0.056-0.72874-0.16817-0.2616-0.0934-0.37371-0.24291-0.11211-0.14948-0.11211-0.33634v-23.282q0-0.18686 0.09343-0.31766 0.09343-0.14948 0.31765-0.24291 0.24291-0.0934 0.61662-0.1308 0.3924-0.056 0.97165-0.056 0.56057 0 0.93428 0.056 0.3924 0.0374 0.61662 0.1308 0.24291 0.0934 0.33634 0.24291 0.09343 0.1308 0.09343 0.31766v1.962q0.72874-0.74742 1.4201-1.308 0.71005-0.57925 1.4388-0.95296 0.72874-0.3924 1.4948-0.57925 0.78479-0.18686 1.663-0.18686 1.8312 0 3.1205 0.72874 1.2893 0.71005 2.0928 1.962 0.82216 1.2519 1.1959 2.915 0.37371 1.663 0.37371 3.5502zm-4.8956 0.33634q0-1.0651-0.16817-2.0367-0.14948-0.99034-0.54188-1.7564-0.37371-0.76611-1.009-1.2146-0.61662-0.46713-1.5509-0.46713-0.46714 0-0.93428 0.14948-0.44845 0.1308-0.93428 0.44845-0.46714 0.31766-0.97165 0.82217t-1.0651 1.2519v5.4936q0.99033 1.2519 1.8872 1.9433 0.89691 0.67268 1.8686 0.67268 0.91559 0 1.5509-0.46714 0.654-0.46714 1.0651-1.2146 0.41108-0.76611 0.59794-1.7191 0.20554-0.95297 0.20554-1.9059z" style="paint-order:stroke fill markers"/><path d="m87.991 213.11q0 0.85953-0.3924 1.2706-0.37371 0.41108-1.0464 0.41108h-10.146q0 1.0651 0.24291 1.9433 0.2616 0.85953 0.80348 1.4762 0.56057 0.59794 1.4201 0.9156 0.87822 0.31765 2.0928 0.31765 1.2332 0 2.1675-0.16817 0.93428-0.18686 1.607-0.3924 0.69136-0.22422 1.1398-0.39239 0.44845-0.18686 0.72874-0.18686 0.16817 0 0.28028 0.0747 0.11211 0.0561 0.18686 0.22423 0.07474 0.16817 0.09343 0.48582 0.03737 0.29897 0.03737 0.76611 0 0.41108-0.01868 0.71005-0.01869 0.28029-0.05606 0.48583t-0.11211 0.35502q-0.07474 0.1308-0.20554 0.2616-0.11211 0.1308-0.65399 0.35503-0.54188 0.22422-1.3827 0.44845-0.84085 0.20554-1.9246 0.35502-1.0838 0.16817-2.317 0.16817-2.2236 0-3.9053-0.56056-1.663-0.56057-2.7841-1.7004t-1.6817-2.8776q-0.54188-1.7378-0.54188-4.0734 0-2.2236 0.57925-3.9987 0.57925-1.7938 1.6817-3.0271 1.1024-1.2519 2.672-1.9059 1.5883-0.654 3.5689-0.654 2.0928 0 3.5689 0.61663 1.4948 0.61662 2.4478 1.7191 0.95296 1.0838 1.4014 2.5786 0.44845 1.4948 0.44845 3.2513zm-4.5593-1.3454q0.05606-1.9807-0.80348-3.1018-0.84085-1.1398-2.616-1.1398-0.89691 0-1.5696 0.33634-0.65399 0.33634-1.1024 0.91559-0.42977 0.56057-0.67268 1.3454-0.22423 0.76611-0.2616 1.6443z" style="paint-order:stroke fill markers"/><path d="m105.21 206.81q0 0.67268-0.0374 1.1024-0.0374 0.42976-0.11211 0.67268-0.0748 0.24291-0.20554 0.33634-0.11212 0.0934-0.29897 0.0934-0.14949 0-0.33634-0.056-0.18686-0.0747-0.42977-0.14949-0.22423-0.0747-0.50451-0.1308-0.28028-0.0747-0.61662-0.0747-0.3924 0-0.7848 0.16817-0.39239 0.14949-0.82216 0.48583-0.41108 0.33634-0.87822 0.8969-0.44846 0.56057-0.97165 1.3827v10.389q0 0.18685-0.11211 0.33634-0.11211 0.1308-0.3924 0.22422-0.2616 0.0934-0.71005 0.1308-0.44845 0.0561-1.1398 0.0561-0.69137 0-1.1398-0.0561-0.44845-0.0374-0.72874-0.1308-0.2616-0.0934-0.37371-0.22422-0.11211-0.14949-0.11211-0.33634v-16.668q0-0.18686 0.09343-0.31766 0.09343-0.14948 0.33634-0.24291 0.24291-0.0934 0.61662-0.1308 0.3924-0.056 0.97165-0.056 0.59794 0 0.99033 0.056 0.3924 0.0374 0.59794 0.1308 0.22423 0.0934 0.31766 0.24291 0.09343 0.1308 0.09343 0.31766v2.0741q0.654-0.93428 1.2332-1.5322 0.57925-0.61662 1.1024-0.97165 0.52319-0.35502 1.0464-0.48582 0.52319-0.14949 1.0464-0.14949 0.24291 0 0.52319 0.0374 0.28029 0.0187 0.57926 0.0934 0.29897 0.0561 0.52319 0.14949 0.22423 0.0747 0.31766 0.16817 0.11211 0.0934 0.14948 0.20554 0.0561 0.11211 0.0934 0.31765 0.0374 0.18686 0.0561 0.57925 0.0187 0.3924 0.0187 1.0651z" style="paint-order:stroke fill markers"/><path d="m147.76 221.31q-0.11212 0.44846-0.31766 0.72874-0.18685 0.2616-0.57925 0.41108-0.39239 0.1308-1.009 0.16817-0.61662 0.0561-1.5696 0.0561-1.0651 0-1.7191-0.0561-0.63531-0.0374-1.009-0.16817-0.37371-0.14948-0.54188-0.41108-0.16817-0.28028-0.2616-0.72874l-3.8679-15.322h-0.0374l-3.6624 15.322q-0.0934 0.42977-0.2616 0.71006-0.16817 0.26159-0.54188 0.41108-0.35502 0.14948-0.99033 0.18685-0.61662 0.0561-1.6443 0.0561-1.0838 0-1.7378-0.0561-0.6353-0.0374-1.009-0.16817-0.37371-0.14948-0.54188-0.41108-0.16817-0.28028-0.28028-0.72874l-5.4936-21.096q-0.16817-0.67268-0.18686-1.0464-0.0187-0.3924 0.20554-0.59794 0.24292-0.20554 0.76611-0.24291 0.54188-0.0561 1.4948-0.0561 0.87822 0 1.3827 0.0374 0.52319 0.0187 0.78479 0.13079 0.2616 0.0934 0.35503 0.29897 0.0934 0.18686 0.14948 0.54188l4.2416 18.517h0.0187l4.4098-18.387q0.0747-0.35502 0.18686-0.57925 0.1308-0.22423 0.41108-0.33634 0.29897-0.1308 0.80348-0.16817 0.50451-0.0561 1.3454-0.0561 0.89691 0 1.4201 0.0374 0.54188 0.0374 0.82216 0.16817 0.29897 0.11211 0.42977 0.33634 0.1308 0.22422 0.20554 0.59793l4.5593 18.387h0.0374l4.2416-18.461q0.056-0.29897 0.14948-0.50451 0.0934-0.22423 0.35503-0.33634 0.26159-0.1308 0.74742-0.16817 0.48582-0.0561 1.364-0.0561 0.82217 0 1.2706 0.0561 0.46714 0.0374 0.67268 0.24291 0.20554 0.20554 0.16817 0.61663-0.0187 0.39239-0.18685 1.0838z" style="paint-order:stroke fill markers"/><path d="m164.06 221.93q0 0.18685-0.11212 0.33634-0.11211 0.1308-0.39239 0.22422-0.2616 0.0934-0.71006 0.1308-0.44845 0.0561-1.1398 0.0561-0.69137 0-1.1398-0.0561-0.44846-0.0374-0.72874-0.1308-0.2616-0.0934-0.37371-0.22422-0.11211-0.14949-0.11211-0.33634v-16.63q0-0.18686 0.11211-0.31765 0.11211-0.14949 0.37371-0.24292 0.28028-0.11211 0.72874-0.16817 0.44845-0.056 1.1398-0.056 0.69136 0 1.1398 0.056 0.44846 0.0561 0.71006 0.16817 0.28028 0.0934 0.39239 0.24292 0.11212 0.13079 0.11212 0.31765zm0.35502-22.311q0 1.4201-0.57925 1.962t-2.1488 0.54188q-1.5883 0-2.1488-0.5232-0.54188-0.52319-0.54188-1.8872 0-1.4201 0.56057-1.962 0.57925-0.56057 2.1675-0.56057 1.5696 0 2.1302 0.54188 0.56057 0.5232 0.56057 1.8872z" style="paint-order:stroke fill markers"/><path d="m187.2 221.93q0 0.20554-0.0934 0.35502-0.0934 0.1308-0.31765 0.22423-0.22423 0.0934-0.61663 0.1308-0.37371 0.0374-0.93427 0.0374-0.59794 0-0.97165-0.0374t-0.61662-0.1308q-0.22423-0.0934-0.33634-0.22423-0.0934-0.14948-0.0934-0.35502v-1.8499q-1.2893 1.3827-2.7094 2.1488-1.4014 0.7661-3.1205 0.7661-1.9059 0-3.2326-0.72873-1.308-0.74742-2.1488-1.9994-0.82217-1.2519-1.1959-2.9149-0.37371-1.6817-0.37371-3.5316 0-2.2236 0.46714-3.9987 0.48583-1.7751 1.4014-3.0271 0.91559-1.2519 2.2796-1.9246 1.364-0.67268 3.1392-0.67268 1.4014 0 2.5412 0.57926 1.1398 0.56056 2.261 1.663v-9.0251q0-0.18686 0.0934-0.33634 0.11211-0.14948 0.37371-0.24291 0.28028-0.11212 0.72874-0.16817 0.44845-0.0561 1.1398-0.0561 0.69136 0 1.1398 0.0561 0.44846 0.056 0.71005 0.16817 0.2616 0.0934 0.37372 0.24291 0.11211 0.14948 0.11211 0.33634zm-4.6714-11.137q-1.009-1.2706-1.9433-1.9433-0.9156-0.67268-1.9246-0.67268-0.91559 0-1.5883 0.46714-0.65399 0.44846-1.0651 1.2146-0.3924 0.76611-0.59794 1.7191-0.18686 0.93428-0.18686 1.9246 0 1.0464 0.16817 2.0367t0.54188 1.7751q0.3924 0.7661 1.0277 1.2332t1.607 0.46714q0.48582 0 0.93427-0.1308 0.46714-0.14948 0.93428-0.46714 0.48583-0.31765 0.99033-0.82216 0.50451-0.52319 1.1024-1.2706z" style="paint-order:stroke fill markers"/><path d="m209.96 213.11q0 0.85953-0.39239 1.2706-0.37372 0.41108-1.0464 0.41108h-10.146q0 1.0651 0.24291 1.9433 0.2616 0.85953 0.80348 1.4762 0.56057 0.59794 1.4201 0.9156 0.87823 0.31765 2.0928 0.31765 1.2332 0 2.1675-0.16817 0.93428-0.18686 1.607-0.3924 0.69136-0.22422 1.1398-0.39239 0.44846-0.18686 0.72874-0.18686 0.16817 0 0.28028 0.0747 0.11212 0.0561 0.18686 0.22423 0.0747 0.16817 0.0934 0.48582 0.0374 0.29897 0.0374 0.76611 0 0.41108-0.0187 0.71005-0.0187 0.28029-0.056 0.48583-0.0374 0.20554-0.11212 0.35502-0.0747 0.1308-0.20554 0.2616-0.11211 0.1308-0.65399 0.35503-0.54188 0.22422-1.3827 0.44845-0.84085 0.20554-1.9246 0.35502-1.0838 0.16817-2.317 0.16817-2.2236 0-3.9053-0.56056-1.663-0.56057-2.7842-1.7004-1.1211-1.1398-1.6817-2.8776-0.54188-1.7378-0.54188-4.0734 0-2.2236 0.57925-3.9987 0.57926-1.7938 1.6817-3.0271 1.1024-1.2519 2.672-1.9059 1.5883-0.654 3.5689-0.654 2.0928 0 3.5689 0.61663 1.4948 0.61662 2.4478 1.7191 0.95297 1.0838 1.4014 2.5786 0.44845 1.4948 0.44845 3.2513zm-4.5593-1.3454q0.056-1.9807-0.80348-3.1018-0.84085-1.1398-2.616-1.1398-0.8969 0-1.5696 0.33634-0.654 0.33634-1.1024 0.91559-0.42977 0.56057-0.67268 1.3454-0.22423 0.76611-0.2616 1.6443z" style="paint-order:stroke fill markers"/><path d="m244.76 218.9q0 0.46714-0.0374 0.80348-0.0187 0.31765-0.0747 0.56056-0.056 0.22423-0.14948 0.3924-0.0934 0.16817-0.29897 0.3924-0.20554 0.20554-0.80348 0.54188-0.57925 0.33634-1.4388 0.65399-0.84085 0.29897-1.9433 0.50451-1.0838 0.20554-2.3544 0.20554-2.4852 0-4.4845-0.7661-1.9994-0.76611-3.4008-2.2796-1.4014-1.5322-2.1488-3.8118-0.74742-2.2796-0.74742-5.3067 0-3.0831 0.82216-5.4749 0.82217-2.3918 2.2983-4.0174 1.4762-1.6256 3.5316-2.4665 2.0741-0.84085 4.5593-0.84085 1.009 0 1.9433 0.16817 0.93428 0.16817 1.7191 0.44845 0.80348 0.2616 1.4388 0.61663 0.63531 0.35502 0.87822 0.61662 0.2616 0.24291 0.35503 0.41108 0.0934 0.16817 0.14948 0.42977 0.0561 0.2616 0.0747 0.61662 0.0374 0.35503 0.0374 0.87822 0 0.56057-0.0374 0.95297-0.0374 0.39239-0.1308 0.63531-0.0934 0.24291-0.22422 0.35502-0.1308 0.11211-0.29897 0.11211-0.28028 0-0.71005-0.31765-0.42977-0.33634-1.1211-0.72874-0.67268-0.41108-1.6256-0.72873-0.93428-0.33634-2.2423-0.33634-1.4388 0-2.5786 0.59793-1.1211 0.57926-1.9246 1.6817-0.78479 1.0838-1.1959 2.6347-0.41108 1.5509-0.41108 3.4942 0 2.1302 0.42977 3.6997 0.44845 1.5509 1.2519 2.5599 0.82217 1.009 1.962 1.5135 1.1585 0.48583 2.5973 0.48583 1.308 0 2.261-0.29897 0.95296-0.31766 1.6256-0.69137 0.69136-0.37371 1.1211-0.67268 0.44846-0.29897 0.69137-0.29897 0.18685 0 0.29897 0.0747 0.11211 0.0747 0.18685 0.29896 0.0747 0.22423 0.11212 0.63531 0.0374 0.3924 0.0374 1.0651z" style="paint-order:stroke fill markers"/><path d="m267.51 213.43q0 2.1302-0.56057 3.8866-0.56056 1.7564-1.7004 3.0271-1.1398 1.2706-2.8589 1.962-1.7191 0.69136-4.0174 0.69136-2.2236 0-3.8679-0.61662t-2.7281-1.7938-1.607-2.8963-0.5232-3.924q0-2.1302 0.56057-3.8866 0.57925-1.7751 1.7191-3.0271 1.1398-1.2706 2.8402-1.962 1.7191-0.69137 4.0174-0.69137 2.2423 0 3.8866 0.61663 1.6443 0.59793 2.7094 1.7751 1.0838 1.1772 1.607 2.8963 0.5232 1.7191 0.5232 3.9426zm-4.8396 0.18686q0-1.2332-0.20554-2.261-0.18686-1.0464-0.65399-1.8125-0.46714-0.76611-1.2519-1.1959-0.7661-0.42976-1.9433-0.42976-1.0464 0-1.8312 0.39239-0.78479 0.37371-1.2893 1.1211-0.50451 0.72873-0.76611 1.7751-0.24291 1.0277-0.24291 2.3544 0 1.2332 0.20554 2.2796 0.20554 1.0277 0.654 1.7938 0.46714 0.76611 1.2519 1.1959 0.78479 0.41108 1.9433 0.41108 1.0651 0 1.8499-0.37371 0.7848-0.3924 1.2893-1.1211 0.50451-0.72874 0.74742-1.7564 0.24291-1.0464 0.24291-2.3731z" style="paint-order:stroke fill markers"/><path d="m278.58 221.93q0 0.18685-0.11211 0.33634-0.11212 0.1308-0.3924 0.22422-0.2616 0.0934-0.71005 0.1308-0.44845 0.0561-1.1398 0.0561-0.69136 0-1.1398-0.0561-0.44845-0.0374-0.72873-0.1308-0.2616-0.0934-0.37371-0.22422-0.11212-0.14949-0.11212-0.33634v-24.572q0-0.18685 0.11212-0.33634 0.11211-0.14948 0.37371-0.24291 0.28028-0.11211 0.72873-0.16817 0.44846-0.0561 1.1398-0.0561 0.69137 0 1.1398 0.0561t0.71005 0.16817q0.28028 0.0934 0.3924 0.24291 0.11211 0.14949 0.11211 0.33634z" style="paint-order:stroke fill markers"/><path d="m301.71 221.93q0 0.18685-0.0934 0.33634-0.0934 0.1308-0.33634 0.22422-0.22423 0.0934-0.61663 0.1308-0.37371 0.0561-0.95296 0.0561-0.61662 0-1.009-0.0561-0.37371-0.0374-0.59794-0.1308-0.22422-0.0934-0.31765-0.22422-0.0934-0.14949-0.0934-0.33634v-1.9246q-1.3827 1.4948-2.8215 2.2423-1.4201 0.74742-2.9523 0.74742-1.7191 0-2.8963-0.56056-1.1585-0.56057-1.8872-1.5322-0.71005-0.97165-1.0277-2.2423-0.29897-1.2893-0.29897-3.1952v-10.202q0-0.18686 0.0934-0.31766 0.11211-0.14948 0.37371-0.24291 0.28029-0.0934 0.72874-0.1308 0.46714-0.056 1.1398-0.056 0.69136 0 1.1398 0.056 0.44845 0.0374 0.71005 0.1308 0.28028 0.0934 0.39239 0.24291 0.11212 0.1308 0.11212 0.31766v9.4175q0 1.308 0.16817 1.9994 0.16817 0.69136 0.50451 1.1959 0.35502 0.48583 0.87822 0.76611 0.54188 0.2616 1.2519 0.2616 0.8969 0 1.7938-0.654 0.91559-0.65399 1.9433-1.9059v-11.081q0-0.18686 0.0934-0.31766 0.11211-0.14948 0.37371-0.24291 0.28028-0.0934 0.72873-0.1308 0.44846-0.056 1.1398-0.056 0.69137 0 1.1398 0.056 0.44845 0.0374 0.71005 0.1308t0.37371 0.24291q0.11211 0.1308 0.11211 0.31766z" style="paint-order:stroke fill markers"/><path d="m335.59 221.93q0 0.18685-0.11211 0.33634-0.11212 0.1308-0.37372 0.22422-0.26159 0.0934-0.71005 0.1308-0.44845 0.0561-1.1398 0.0561-0.71005 0-1.1585-0.0561-0.44845-0.0374-0.72874-0.1308-0.26159-0.0934-0.37371-0.22422-0.0934-0.14949-0.0934-0.33634v-9.8847q0-0.84085-0.16817-1.5322-0.14949-0.69137-0.48583-1.1772-0.31765-0.50451-0.82216-0.76611-0.48583-0.28028-1.1772-0.28028-0.84085 0-1.7004 0.65399-0.85953 0.654-1.8686 1.9059v11.081q0 0.18685-0.11211 0.33634-0.11212 0.1308-0.3924 0.22422-0.2616 0.0934-0.71005 0.1308-0.44846 0.0561-1.1211 0.0561-0.69137 0-1.1398-0.0561-0.44846-0.0374-0.72874-0.1308-0.2616-0.0934-0.37371-0.22422-0.11211-0.14949-0.11211-0.33634v-9.8847q0-0.84085-0.16817-1.5322-0.14949-0.69137-0.46714-1.1772-0.31766-0.50451-0.82217-0.76611-0.50451-0.28028-1.1772-0.28028-0.85953 0-1.7191 0.65399-0.85953 0.654-1.8499 1.9059v11.081q0 0.18685-0.11211 0.33634-0.11211 0.1308-0.3924 0.22422-0.26159 0.0934-0.71005 0.1308-0.44845 0.0561-1.1398 0.0561-0.69137 0-1.1398-0.0561-0.44846-0.0374-0.72874-0.1308-0.2616-0.0934-0.37371-0.22422-0.11211-0.14949-0.11211-0.33634v-16.668q0-0.18686 0.0934-0.31766 0.0934-0.14948 0.33634-0.24291 0.24292-0.0934 0.61663-0.1308 0.39239-0.056 0.97165-0.056 0.59793 0 0.99033 0.056 0.3924 0.0374 0.59794 0.1308 0.22422 0.0934 0.31765 0.24291 0.0934 0.1308 0.0934 0.31766v1.9246q1.3827-1.4948 2.7468-2.2423 1.3827-0.74742 2.8776-0.74742 1.0277 0 1.8499 0.22423 0.82216 0.20554 1.4575 0.61662 0.65399 0.3924 1.1211 0.95297 0.46714 0.56056 0.7848 1.2519 0.74742-0.80348 1.4575-1.3827 0.72874-0.57926 1.4201-0.93428 0.71005-0.37371 1.4014-0.54188 0.71005-0.18686 1.4388-0.18686 1.663 0 2.8028 0.56057 1.1398 0.56057 1.8312 1.5322 0.71005 0.95297 1.009 2.2423t0.29897 2.7281z" style="paint-order:stroke fill markers"/><path d="m358.77 221.93q0 0.18685-0.11211 0.33634-0.11211 0.1308-0.37371 0.22422-0.2616 0.0934-0.72874 0.1308-0.44845 0.0561-1.1211 0.0561-0.69136 0-1.1585-0.0561-0.44846-0.0374-0.71005-0.1308-0.2616-0.0934-0.37372-0.22422-0.11211-0.14949-0.11211-0.33634v-9.511q0-1.2146-0.18685-1.9059-0.16817-0.69137-0.50451-1.1772-0.33634-0.50451-0.87822-0.76611-0.5232-0.28028-1.2332-0.28028-0.89691 0-1.8125 0.65399-0.91559 0.654-1.9059 1.9059v11.081q0 0.18685-0.11212 0.33634-0.11211 0.1308-0.39239 0.22422-0.2616 0.0934-0.71006 0.1308-0.44845 0.0561-1.1398 0.0561-0.69137 0-1.1398-0.0561-0.44846-0.0374-0.72874-0.1308-0.2616-0.0934-0.37371-0.22422-0.11211-0.14949-0.11211-0.33634v-16.668q0-0.18686 0.0934-0.31766 0.0934-0.14948 0.33634-0.24291 0.24291-0.0934 0.61662-0.1308 0.39239-0.056 0.97165-0.056 0.59793 0 0.99033 0.056 0.3924 0.0374 0.59794 0.1308 0.22422 0.0934 0.31765 0.24291 0.0934 0.1308 0.0934 0.31766v1.9246q1.3827-1.4948 2.8028-2.2423 1.4388-0.74742 2.9897-0.74742 1.7004 0 2.8589 0.56057 1.1772 0.56057 1.8872 1.5322 0.72874 0.95297 1.0464 2.2423t0.31765 3.1018z" style="paint-order:stroke fill markers"/><path d="m397.68 210.12q0 3.326-0.87822 5.6991-0.85953 2.3544-2.4852 3.8492-1.6256 1.4948-3.9613 2.2049-2.317 0.69137-5.5309 0.69137h-5.7738q-0.61662 0-1.0464-0.35503-0.41108-0.37371-0.41108-1.1959v-21.077q0-0.82217 0.41108-1.1772 0.42977-0.37371 1.0464-0.37371h6.2036q3.2326 0 5.4749 0.76611 2.261 0.74742 3.7932 2.2423 1.5509 1.4762 2.3544 3.6624t0.80348 5.0638zm-5.0825 0.16817q0-1.7191-0.41108-3.1952-0.3924-1.4762-1.2893-2.5599-0.87822-1.0838-2.2796-1.6817-1.3827-0.61662-3.6437-0.61662h-2.4852v16.443h2.5599q2.018 0 3.4008-0.52319 1.3827-0.5232 2.2983-1.5696 0.93428-1.0651 1.3827-2.6347 0.46714-1.5696 0.46714-3.6624z" style="paint-order:stroke fill markers"/><path d="m418.28 221.98q0 0.2616-0.18685 0.41109-0.18686 0.14948-0.59794 0.20554-0.3924 0.0747-1.1772 0.0747-0.84085 0-1.2332-0.0747-0.37371-0.0561-0.54188-0.20554-0.14948-0.14949-0.14948-0.41109v-1.3267q-1.0277 1.1024-2.3544 1.7191-1.308 0.61662-2.915 0.61662-1.3267 0-2.4478-0.35502-1.1024-0.33634-1.9246-1.009-0.80348-0.69137-1.2519-1.7004-0.44845-1.009-0.44845-2.3544 0-1.4575 0.56057-2.5226 0.57925-1.0838 1.7004-1.7751 1.1398-0.71005 2.8215-1.0464t3.9053-0.33634h1.6256v-1.009q0-0.78479-0.16817-1.364-0.14948-0.59793-0.52319-0.99033-0.35503-0.3924-0.97165-0.57925-0.59794-0.18686-1.4948-0.18686-1.1772 0-2.1115 0.2616-0.9156 0.2616-1.6256 0.57925-0.71005 0.31766-1.1959 0.57925-0.46714 0.2616-0.76611 0.2616-0.20554 0-0.37371-0.1308-0.14948-0.1308-0.2616-0.37371-0.0934-0.24291-0.14948-0.59794-0.0561-0.35502-0.0561-0.78479 0-0.57925 0.0934-0.91559t0.35503-0.59794q0.26159-0.28028 0.91559-0.59794 0.65399-0.33634 1.5322-0.61662t1.9059-0.44845q1.0464-0.18686 2.1488-0.18686 1.962 0 3.3447 0.3924 1.4014 0.37371 2.2983 1.1772 0.89691 0.78479 1.308 2.0367 0.41108 1.2519 0.41108 2.971zm-4.6153-7.1379h-1.7938q-1.1398 0-1.9433 0.16817t-1.308 0.5045q-0.50451 0.33634-0.74742 0.82217-0.22423 0.46714-0.22423 1.0838 0 1.0464 0.654 1.6443 0.67268 0.59794 1.8499 0.59794 0.99033 0 1.8125-0.50451 0.84085-0.50451 1.7004-1.4762z" style="paint-order:stroke fill markers"/><path d="m435.12 220.28q0 0.82216-0.11211 1.2706-0.0934 0.42976-0.2616 0.61662-0.16817 0.16817-0.50451 0.31765-0.31765 0.1308-0.76611 0.22423-0.42977 0.11211-0.95296 0.16817-0.50451 0.0561-1.0277 0.0561-1.4014 0-2.4291-0.35503-1.0277-0.35502-1.7004-1.0838-0.67268-0.74742-0.99034-1.8686-0.31765-1.1211-0.31765-2.6534v-8.5393h-1.9994q-0.35503 0-0.54188-0.42977-0.18686-0.44845-0.18686-1.4762 0-0.54188 0.0374-0.9156 0.0561-0.37371 0.14949-0.57925 0.0934-0.22422 0.22422-0.31765 0.14949-0.0934 0.33634-0.0934h1.9807v-3.7184q0-0.18686 0.0934-0.33634 0.11211-0.14949 0.37371-0.24292 0.28028-0.11211 0.72873-0.14948 0.46714-0.0561 1.1398-0.0561 0.69137 0 1.1398 0.0561 0.46714 0.0374 0.72874 0.14948 0.2616 0.0934 0.37371 0.24292 0.11211 0.14948 0.11211 0.33634v3.7184h3.625q0.18685 0 0.31765 0.0934 0.14949 0.0934 0.24292 0.31765 0.0934 0.20554 0.13079 0.57925 0.0561 0.37372 0.0561 0.9156 0 1.0277-0.18685 1.4762-0.18686 0.42977-0.54189 0.42977h-3.6437v7.8292q0 1.364 0.42977 2.0554 0.42977 0.67268 1.5322 0.67268 0.37372 0 0.67268-0.0561 0.29897-0.0747 0.5232-0.14948 0.24291-0.0934 0.3924-0.14949 0.16817-0.0747 0.29897-0.0747 0.11211 0 0.20554 0.0747 0.11211 0.0561 0.16817 0.2616 0.056 0.18685 0.0934 0.52319 0.0561 0.33634 0.0561 0.85954z" style="paint-order:stroke fill markers"/><path d="m454.99 221.98q0 0.2616-0.18686 0.41109-0.18685 0.14948-0.59794 0.20554-0.39239 0.0747-1.1772 0.0747-0.84084 0-1.2332-0.0747-0.37371-0.0561-0.54188-0.20554-0.14949-0.14949-0.14949-0.41109v-1.3267q-1.0277 1.1024-2.3544 1.7191-1.308 0.61662-2.9149 0.61662-1.3267 0-2.4478-0.35502-1.1024-0.33634-1.9246-1.009-0.80348-0.69137-1.2519-1.7004t-0.44845-2.3544q0-1.4575 0.56056-2.5226 0.57925-1.0838 1.7004-1.7751 1.1398-0.71005 2.8215-1.0464 1.6817-0.33634 3.9053-0.33634h1.6256v-1.009q0-0.78479-0.16817-1.364-0.14949-0.59793-0.5232-0.99033-0.35502-0.3924-0.97165-0.57925-0.59793-0.18686-1.4948-0.18686-1.1772 0-2.1115 0.2616-0.91559 0.2616-1.6256 0.57925-0.71005 0.31766-1.1959 0.57925-0.46713 0.2616-0.7661 0.2616-0.20554 0-0.37371-0.1308-0.14949-0.1308-0.2616-0.37371-0.0934-0.24291-0.14949-0.59794-0.0561-0.35502-0.0561-0.78479 0-0.57925 0.0934-0.91559t0.35502-0.59794q0.2616-0.28028 0.91559-0.59794 0.654-0.33634 1.5322-0.61662t1.9059-0.44845q1.0464-0.18686 2.1488-0.18686 1.962 0 3.3447 0.3924 1.4014 0.37371 2.2983 1.1772 0.8969 0.78479 1.308 2.0367 0.41108 1.2519 0.41108 2.971zm-4.6153-7.1379h-1.7938q-1.1398 0-1.9433 0.16817t-1.308 0.5045q-0.50451 0.33634-0.74742 0.82217-0.22423 0.46714-0.22423 1.0838 0 1.0464 0.65399 1.6443 0.67268 0.59794 1.8499 0.59794 0.99034 0 1.8125-0.50451 0.84085-0.50451 1.7004-1.4762z" style="paint-order:stroke fill markers"/><path d="m479.1 213.37q0 2.2236-0.48582 3.9987-0.48583 1.7751-1.4014 3.0271t-2.261 1.9246q-1.3267 0.67268-3.0271 0.67268-0.84085 0-1.5696-0.16817-0.72873-0.14948-1.4014-0.50451-0.654-0.35502-1.308-0.8969-0.63531-0.54188-1.308-1.308v1.8125q0 0.20554-0.11211 0.35502-0.0934 0.1308-0.33634 0.22423-0.22423 0.0934-0.61663 0.1308-0.39239 0.0374-0.95296 0.0374-0.57925 0-0.97165-0.0374-0.37371-0.0374-0.61662-0.1308-0.22423-0.0934-0.31765-0.22423-0.0934-0.14948-0.0934-0.35502v-24.572q0-0.18685 0.11211-0.33634 0.11211-0.14948 0.37371-0.24291 0.28029-0.11211 0.72874-0.16817 0.44845-0.0561 1.1398-0.0561 0.69136 0 1.1398 0.0561 0.44845 0.0561 0.71005 0.16817 0.28028 0.0934 0.39239 0.24291 0.11212 0.14949 0.11212 0.33634v9.212q0.6353-0.63531 1.2706-1.0838 0.63531-0.44846 1.2706-0.72874 0.63531-0.29897 1.308-0.42977t1.4201-0.1308q1.8499 0 3.1392 0.74742 1.2893 0.72874 2.0928 1.9807 0.82217 1.2519 1.1959 2.9336 0.37371 1.663 0.37371 3.5129zm-4.8769 0.33634q0-1.0651-0.16817-2.0554-0.14948-0.99034-0.54188-1.7564-0.3924-0.76611-1.0277-1.2146-0.61663-0.46713-1.5696-0.46713-0.46714 0-0.91559 0.13079-0.44845 0.1308-0.93428 0.44846-0.46714 0.31765-0.97165 0.82216t-1.0651 1.2519v5.5309q0.99033 1.2706 1.8872 1.9433 0.91559 0.654 1.9059 0.654 0.91559 0 1.5509-0.46714t1.0464-1.2146q0.42977-0.74742 0.61663-1.7004 0.18685-0.95296 0.18685-1.9059z" style="paint-order:stroke fill markers"/><path d="m499.69 221.98q0 0.2616-0.18686 0.41109-0.18685 0.14948-0.59793 0.20554-0.3924 0.0747-1.1772 0.0747-0.84085 0-1.2332-0.0747-0.37371-0.0561-0.54188-0.20554-0.14948-0.14949-0.14948-0.41109v-1.3267q-1.0277 1.1024-2.3544 1.7191-1.308 0.61662-2.915 0.61662-1.3267 0-2.4478-0.35502-1.1024-0.33634-1.9246-1.009-0.80348-0.69137-1.2519-1.7004t-0.44845-2.3544q0-1.4575 0.56056-2.5226 0.57926-1.0838 1.7004-1.7751 1.1398-0.71005 2.8215-1.0464t3.9053-0.33634h1.6256v-1.009q0-0.78479-0.16817-1.364-0.14949-0.59793-0.5232-0.99033-0.35502-0.3924-0.97164-0.57925-0.59794-0.18686-1.4948-0.18686-1.1772 0-2.1115 0.2616-0.91559 0.2616-1.6256 0.57925-0.71005 0.31766-1.1959 0.57925-0.46714 0.2616-0.76611 0.2616-0.20554 0-0.37371-0.1308-0.14949-0.1308-0.2616-0.37371-0.0934-0.24291-0.14948-0.59794-0.0561-0.35502-0.0561-0.78479 0-0.57925 0.0934-0.91559t0.35502-0.59794q0.2616-0.28028 0.9156-0.59794 0.65399-0.33634 1.5322-0.61662t1.9059-0.44845q1.0464-0.18686 2.1488-0.18686 1.962 0 3.3447 0.3924 1.4014 0.37371 2.2983 1.1772 0.89691 0.78479 1.308 2.0367 0.41108 1.2519 0.41108 2.971zm-4.6153-7.1379h-1.7938q-1.1398 0-1.9433 0.16817t-1.308 0.5045q-0.50451 0.33634-0.74742 0.82217-0.22423 0.46714-0.22423 1.0838 0 1.0464 0.654 1.6443 0.67268 0.59794 1.8499 0.59794 0.99033 0 1.8125-0.50451 0.84085-0.50451 1.7004-1.4762z" style="paint-order:stroke fill markers"/><path d="m518.76 217.22q0 1.4201-0.54188 2.5039-0.52319 1.0838-1.4948 1.8125t-2.2983 1.0838q-1.3267 0.37371-2.8776 0.37371-0.93427 0-1.7938-0.14948-0.84085-0.1308-1.5135-0.33634-0.67268-0.22423-1.1211-0.44845-0.44846-0.22423-0.654-0.41109-0.20554-0.20554-0.31765-0.61662-0.11211-0.42977-0.11211-1.2519 0-0.54188 0.0374-0.85954 0.0374-0.33634 0.11211-0.52319 0.0747-0.20554 0.18686-0.2616 0.11211-0.0747 0.28028-0.0747 0.20554 0 0.59794 0.24291 0.41108 0.22423 1.009 0.50451 0.59793 0.28028 1.3827 0.5232 0.80348 0.24291 1.8125 0.24291 0.6353 0 1.1211-0.1308 0.50451-0.1308 0.85953-0.37371 0.37371-0.24291 0.56057-0.61662 0.18686-0.37372 0.18686-0.85954 0-0.56057-0.35503-0.95296-0.33634-0.41108-0.91559-0.71005-0.56057-0.29897-1.2893-0.56057-0.71006-0.2616-1.4762-0.57925-0.74743-0.31766-1.4762-0.72874-0.71005-0.41108-1.2893-1.009-0.56057-0.59793-0.9156-1.4388-0.33634-0.84085-0.33634-2.018 0-1.1959 0.46714-2.1862 0.46714-1.009 1.3454-1.7191t2.1302-1.1024q1.2706-0.3924 2.8402-0.3924 0.78479 0 1.5135 0.11212 0.74742 0.11211 1.3454 0.28028 0.59793 0.16817 1.009 0.37371 0.41108 0.18686 0.57925 0.33634 0.18685 0.1308 0.2616 0.28028 0.0747 0.1308 0.11211 0.33634 0.0374 0.18686 0.0561 0.48583 0.0374 0.28028 0.0374 0.71005 0 0.50451-0.0374 0.82216-0.0187 0.31766-0.0934 0.50451-0.0561 0.18686-0.16817 0.2616-0.11212 0.0561-0.2616 0.0561-0.16817 0-0.52319-0.18686-0.35503-0.20554-0.89691-0.42977-0.5232-0.22422-1.2332-0.41108-0.69136-0.20554-1.5883-0.20554-0.63531 0-1.1024 0.1308-0.46713 0.1308-0.7661 0.37371t-0.44846 0.57925q-0.14948 0.31766-0.14948 0.69137 0 0.57925 0.35502 0.97165 0.35503 0.39239 0.93428 0.69136t1.308 0.56057q0.74742 0.2616 1.4948 0.57925 0.76611 0.29897 1.4948 0.71005 0.74742 0.41108 1.3267 1.009t0.93428 1.4388q0.35502 0.82216 0.35502 1.962z" style="paint-order:stroke fill markers"/><path d="m540.32 213.11q0 0.85953-0.3924 1.2706-0.37371 0.41108-1.0464 0.41108h-10.146q0 1.0651 0.24291 1.9433 0.2616 0.85953 0.80348 1.4762 0.56057 0.59794 1.4201 0.9156 0.87822 0.31765 2.0928 0.31765 1.2332 0 2.1675-0.16817 0.93427-0.18686 1.607-0.3924 0.69137-0.22422 1.1398-0.39239 0.44845-0.18686 0.72874-0.18686 0.16817 0 0.28028 0.0747 0.11211 0.0561 0.18686 0.22423 0.0747 0.16817 0.0934 0.48582 0.0374 0.29897 0.0374 0.76611 0 0.41108-0.0187 0.71005-0.0187 0.28029-0.0561 0.48583t-0.11211 0.35502q-0.0747 0.1308-0.20554 0.2616-0.11211 0.1308-0.65399 0.35503-0.54189 0.22422-1.3827 0.44845-0.84085 0.20554-1.9246 0.35502-1.0838 0.16817-2.317 0.16817-2.2236 0-3.9053-0.56056-1.663-0.56057-2.7842-1.7004t-1.6817-2.8776q-0.54188-1.7378-0.54188-4.0734 0-2.2236 0.57925-3.9987 0.57925-1.7938 1.6817-3.0271 1.1024-1.2519 2.672-1.9059 1.5883-0.654 3.5689-0.654 2.0928 0 3.5689 0.61663 1.4948 0.61662 2.4478 1.7191 0.95296 1.0838 1.4014 2.5786 0.44845 1.4948 0.44845 3.2513zm-4.5593-1.3454q0.0561-1.9807-0.80348-3.1018-0.84085-1.1398-2.616-1.1398-0.89691 0-1.5696 0.33634-0.65399 0.33634-1.1024 0.91559-0.42977 0.56057-0.67268 1.3454-0.22423 0.76611-0.2616 1.6443z" style="paint-order:stroke fill markers"/></g></svg>
