<?xml version="1.0" standalone="no"?>
<!DOCTYPE svg PUBLIC "-//W3C//DTD SVG 20010904//EN"
 "http://www.w3.org/TR/2001/REC-SVG-20010904/DTD/svg10.dtd">
<svg version="1.0" xmlns="http://www.w3.org/2000/svg"
 width="500.000000pt" height="500.000000pt" viewBox="0 0 500.000000 500.000000"
 preserveAspectRatio="xMidYMid meet">
<metadata>
Created by potrace 1.11, written by Peter Selinger 2001-2013
</metadata>
<g transform="translate(0.000000,500.000000) scale(0.100000,-0.100000)"
fill="#000000" stroke="none">
<path d="M4762 4867 l-82 -83 -83 1 c-75 1 -89 5 -164 43 -46 23 -88 42 -94
42 -6 0 -71 -60 -144 -134 -116 -116 -145 -139 -222 -179 l-88 -45 0 -556 0
-555 63 62 c45 45 75 87 107 151 l45 89 0 440 0 439 35 35 34 34 82 -40 c75
-37 89 -41 160 -41 53 0 78 -4 81 -12 2 -7 4 -296 4 -642 l-1 -629 -122 -43
-123 -42 -137 3 c-134 2 -142 3 -256 44 l-119 42 -125 127 -126 127 -42 127
-42 128 2 187 2 188 40 116 c74 211 108 267 251 412 l127 129 -60 -30 c-33
-16 -96 -46 -140 -67 -65 -32 -96 -55 -169 -129 -51 -52 -99 -111 -112 -138
-13 -27 -24 -48 -26 -48 -2 0 -3 59 -2 131 l1 131 -96 98 -96 98 -142 -96
-143 -95 0 -699 0 -698 -110 0 -110 0 0 697 0 698 -97 97 -96 97 -142 -97
-142 -97 -1 -660 c0 -363 -1 -677 -1 -698 l-1 -38 -107 3 -108 3 -1 605 -2
606 -46 94 c-31 62 -63 110 -93 139 -41 40 -78 61 -268 154 l-60 29 84 -85 83
-85 43 -126 c40 -117 43 -133 44 -241 l2 -116 -78 39 -78 39 -242 -1 c-163 -1
-240 2 -235 9 63 108 161 238 240 317 53 54 94 99 91 102 -2 2 -85 25 -184 51
l-180 47 -182 0 -181 0 -133 -44 c-123 -40 -135 -46 -184 -96 -47 -47 -135
-198 -135 -232 0 -22 90 -187 117 -215 57 -58 71 -66 202 -110 124 -43 137
-45 242 -45 88 0 110 -3 106 -13 -4 -11 -121 -192 -134 -206 -2 -3 -79 -4
-171 -4 l-167 0 -84 43 c-56 27 -104 61 -142 100 l-59 58 0 -69 c0 -62 5 -78
47 -163 l47 -94 92 -46 92 -46 108 0 108 0 -67 -68 c-45 -45 -95 -83 -146
-110 l-77 -42 -57 55 -57 55 -1 -42 c-2 -69 2 -103 13 -109 28 -18 107 0 193
44 72 36 107 62 175 131 l85 86 167 0 166 0 81 -41 80 -42 -3 -56 c-5 -99 3
-95 65 30 54 110 67 155 60 216 0 6 -22 33 -48 60 l-48 48 -185 2 c-102 1
-193 2 -202 2 -13 1 -1 27 55 111 l72 110 209 0 210 0 72 -37 72 -37 -36 -41
-37 -40 1 -100 c1 -55 3 -104 3 -110 1 -5 26 15 56 45 40 39 62 54 85 55 28 1
30 -1 30 -34 0 -20 -19 -92 -42 -161 -37 -113 -52 -141 -158 -302 -70 -107
-120 -174 -126 -168 -5 5 -65 27 -133 49 -121 40 -129 41 -260 41 -103 0 -155
-5 -216 -21 -44 -11 -87 -21 -95 -23 -88 -22 -149 -38 -170 -47 -38 -17 -343
-223 -334 -226 7 -2 314 71 389 93 29 9 445 11 480 3 17 -4 81 -25 144 -47
l113 -39 180 271 c99 149 210 311 247 361 l66 89 3 -204 c2 -155 -1 -207 -10
-216 -7 -7 -59 -35 -115 -64 -57 -28 -103 -53 -103 -54 0 -2 74 -4 165 -4
l165 0 129 -42 c118 -38 132 -46 177 -91 l48 -49 96 94 95 93 110 37 c60 21
116 38 125 38 8 1 49 -15 90 -35 l76 -37 48 -95 c26 -52 50 -95 54 -95 3 0 46
41 96 92 l91 92 135 46 135 47 0 46 c0 26 1 47 2 47 2 0 13 -20 25 -45 19 -37
45 -59 158 -136 108 -74 154 -98 231 -124 53 -18 106 -38 118 -44 14 -8 77
-12 174 -12 l152 0 130 44 c211 71 298 120 400 224 77 78 93 102 151 217 35
71 62 131 60 134 -2 2 -57 -50 -123 -116 -87 -88 -134 -127 -181 -150 -34 -18
-66 -32 -70 -32 -4 0 -8 285 -7 633 l0 632 85 44 85 44 70 143 c39 79 70 144
70 144 0 0 -38 -37 -83 -83z m-3967 -68 c127 -39 299 -127 347 -176 l37 -38
-75 -115 c-42 -63 -78 -117 -81 -120 -2 -2 -77 -5 -166 -5 l-162 -1 -130 43
c-109 36 -136 49 -170 83 l-41 41 1 80 c1 79 2 81 41 119 32 32 61 47 154 79
63 21 122 40 130 40 9 1 61 -13 115 -30z m1573 -183 l37 -41 0 -200 -1 -200
-110 -3 -111 -3 0 244 1 243 73 1 c73 0 73 0 111 -41z m697 4 l35 -36 0 -149
c1 -83 1 -176 1 -207 l-1 -58 -110 0 -110 0 0 243 0 243 75 0 c73 0 76 -1 110
-36z m-660 -642 l0 -153 -45 -5 c-25 -3 -75 -4 -111 -2 l-66 4 0 154 0 154
111 0 111 0 0 -152z m696 135 c2 -44 -2 -288 -5 -290 -3 -4 -82 -6 -163 -4
l-53 1 0 155 0 155 110 0 c98 0 110 -2 111 -17z m-708 -339 c9 -3 12 -67 12
-249 l-1 -245 -36 -36 -36 -36 -73 38 -74 39 -1 247 0 247 98 0 c55 0 104 -2
111 -5z m707 -62 c3 -402 2 -434 -22 -459 -42 -45 -51 -46 -127 -6 l-71 38 0
246 0 247 110 1 110 1 0 -68z"/>
<path d="M2997 2952 l-128 -66 -84 42 -85 42 -140 0 -140 0 -39 -41 -38 -41
-81 41 -82 41 -635 -2 -635 -3 59 -60 c40 -40 87 -74 147 -105 l89 -46 252 1
c161 0 254 -3 256 -10 2 -5 3 -311 3 -680 l-1 -670 -135 -6 c-125 -5 -143 -8
-254 -47 -103 -36 -145 -58 -292 -154 -95 -62 -173 -116 -173 -119 -1 -4 52 7
117 23 64 16 124 31 132 33 8 2 53 13 100 25 74 20 113 23 300 24 l215 1 96
-46 96 -47 91 91 c71 71 110 102 174 135 80 41 86 42 175 42 l93 0 2 308 c3
299 3 307 23 307 19 0 20 -7 22 -245 1 -135 2 -260 2 -277 l1 -33 65 68 c45
47 77 92 105 152 l41 84 1 414 c0 227 -2 415 -4 418 -3 2 -30 -21 -62 -51 -70
-68 -146 -211 -146 -274 0 -37 -2 -41 -25 -41 l-25 0 0 263 c0 145 -3 266 -6
270 -3 3 -17 29 -30 56 -22 50 -23 51 -4 61 16 8 36 2 102 -32 l83 -42 139 0
140 -1 110 111 c115 115 152 155 145 153 -2 0 -62 -31 -132 -67z m-826 -209
c9 -9 9 -16 -2 -30 -13 -17 -13 -17 5 -3 17 13 20 12 41 -13 23 -25 24 -33 23
-187 l-1 -161 -78 -40 c-72 -36 -85 -39 -160 -39 -74 0 -90 4 -158 36 -42 20
-78 40 -81 44 -4 7 -5 383 -1 400 0 3 91 5 201 5 140 0 203 -4 211 -12z m-341
-478 c65 -33 76 -35 167 -35 91 0 101 2 164 35 38 19 70 35 72 35 2 0 3 -103
3 -229 l0 -229 -75 37 c-71 35 -82 38 -166 38 -84 0 -95 -2 -160 -36 -38 -20
-72 -37 -75 -38 -3 -2 -5 101 -5 227 0 127 1 230 3 230 1 0 34 -16 72 -35z
m330 -430 l75 -40 1 -206 2 -205 -72 -37 c-39 -21 -78 -37 -86 -37 -9 0 -70
18 -135 40 -65 22 -135 40 -155 40 l-35 0 0 203 0 202 79 41 c77 40 83 42 165
40 79 -2 92 -5 161 -41z"/>
<path d="M3380 2839 c-300 -151 -331 -176 -405 -322 l-42 -83 0 -422 0 -423
26 23 c72 63 107 109 146 190 l44 88 -1 392 -1 391 165 84 165 84 79 -40 c43
-22 97 -58 119 -81 l40 -41 1 -122 2 -122 -84 -86 c-70 -70 -101 -93 -174
-129 l-90 -44 0 -404 0 -404 -22 8 c-13 4 -111 10 -218 11 -156 3 -202 1 -230
-11 -19 -8 -78 -30 -130 -48 -76 -27 -130 -57 -267 -148 -94 -63 -170 -116
-169 -117 1 -1 100 23 221 54 l220 55 215 2 215 1 95 -46 95 -47 90 90 c72 73
107 99 177 134 84 42 91 44 178 44 l90 0 0 278 0 277 -45 91 -46 92 -116 77
c-87 58 -112 79 -102 86 8 6 41 24 74 40 41 21 88 60 148 121 l87 90 0 98 c0
96 -1 100 -45 188 l-45 91 -90 45 c-49 25 -93 46 -98 46 -6 0 -128 -59 -272
-131z m256 -736 c46 -71 79 -131 81 -150 4 -38 22 -34 -182 -36 l-120 -1 -3
117 -3 116 68 35 c37 19 71 35 74 36 4 0 42 -53 85 -117z m81 -338 l1 -111
-154 0 -154 -1 0 112 0 111 153 0 153 0 1 -111z m-26 -154 l26 -1 0 -113 0
-114 -81 -39 -81 -40 -72 25 -73 25 0 127 0 128 83 3 c45 2 102 2 127 1 25 -1
57 -2 71 -2z"/>
<path d="M1423 2488 c-74 -76 -143 -205 -143 -268 l0 -40 -83 0 -83 0 -47 -48
-48 -49 -2 -116 c-2 -131 -10 -126 77 -42 40 40 43 41 111 40 l70 0 2 -225 c1
-124 2 -229 3 -235 0 -5 27 17 61 50 46 45 72 83 107 155 l46 95 1 372 c0 205
-2 373 -5 373 -3 0 -33 -28 -67 -62z"/>
<path d="M2492 1056 c-5 -6 -8 -53 -8 -103 1 -51 -2 -93 -6 -93 -5 0 -8 7 -8
15 0 29 -52 65 -95 65 -74 0 -105 -38 -114 -140 -5 -56 -9 -66 -32 -79 -57
-32 -108 15 -111 102 -5 120 42 176 115 137 l35 -19 5 26 c7 38 -31 73 -80 73
-83 0 -134 -65 -141 -180 -7 -116 27 -191 96 -209 42 -12 110 2 118 24 5 12
11 10 33 -6 58 -43 136 -25 166 37 9 19 17 34 19 34 1 0 2 -19 2 -42 -1 -41 0
-43 29 -43 l30 0 0 83 c0 45 3 82 6 82 4 0 7 -25 8 -55 1 -114 67 -158 135
-89 15 14 16 14 16 -5 0 -16 6 -21 25 -21 l25 0 -3 143 -2 142 -25 0 c-25 0
-25 -1 -28 -95 -3 -99 -16 -130 -53 -130 -25 0 -33 35 -32 137 0 74 -2 83 -19
89 -29 9 -40 -8 -40 -60 0 -25 -3 -46 -7 -46 -4 0 -6 51 -6 114 0 111 0 115
-22 119 -13 2 -27 -1 -31 -7z m-82 -202 c17 -44 12 -112 -10 -134 -11 -11 -24
-20 -30 -20 -5 0 -19 9 -30 20 -26 26 -28 114 -3 142 24 27 61 23 73 -8z"/>
<path d="M4178 1063 c-21 -5 -24 -48 -20 -260 l3 -153 24 0 c17 0 25 6 25 17
0 15 1 15 18 0 33 -30 72 -29 102 2 l28 28 19 -23 c23 -29 62 -37 98 -18 32
17 38 17 30 4 -4 -6 5 -10 19 -10 14 0 26 5 26 11 0 8 4 8 13 1 37 -31 110
-17 143 26 9 13 13 12 26 -6 20 -29 61 -43 106 -36 46 7 62 20 62 48 0 22 -2
22 -50 12 -57 -11 -77 0 -82 44 -3 24 -2 25 64 24 58 -1 68 1 74 18 8 28 -4
90 -25 116 -20 28 -87 40 -119 23 -26 -14 -51 -59 -56 -103 -3 -18 -5 -34 -5
-36 -2 -7 -91 60 -91 67 0 5 7 14 15 21 12 10 21 10 41 1 34 -15 34 -15 34 18
0 32 -14 41 -64 41 -35 0 -76 -31 -76 -57 0 -9 -9 -2 -23 18 -22 32 -27 34
-79 34 -62 0 -88 -15 -88 -51 0 -13 1 -24 3 -24 1 0 20 7 42 14 47 17 75 6 75
-28 0 -20 -6 -24 -41 -29 -22 -3 -49 -13 -58 -21 -17 -16 -19 -14 -24 36 -4
29 -15 64 -25 78 -24 31 -76 39 -103 14 -19 -17 -19 -15 -19 58 0 78 -6 89
-42 81z m662 -192 c21 -40 13 -51 -32 -48 -37 2 -43 5 -40 22 8 46 52 61 72
26z m-556 -4 c37 -27 28 -157 -12 -157 -8 0 -24 7 -34 17 -24 22 -25 109 -1
135 19 21 24 22 47 5z m358 -122 c10 -9 15 -21 11 -31 -5 -13 -14 -15 -42 -9
-20 3 -42 7 -49 7 -8 1 -12 19 -11 57 l2 56 36 -33 c20 -18 44 -39 53 -47z
m-149 11 c3 -7 -1 -23 -10 -35 -28 -41 -77 -12 -59 35 7 18 62 18 69 0z"/>
<path d="M1727 1053 c-3 -5 -4 -38 -3 -74 1 -64 0 -66 -19 -53 -45 32 -108 3
-121 -54 -10 -48 -12 -48 -13 5 -1 56 -10 68 -41 58 -19 -6 -20 -15 -20 -146
l0 -139 30 0 c29 0 30 2 30 43 l1 42 13 -30 c7 -17 21 -36 30 -44 24 -20 72
-18 96 4 18 16 20 16 20 2 0 -11 8 -17 25 -17 23 0 25 3 26 53 1 47 2 49 10
21 18 -64 81 -92 157 -72 26 7 32 13 32 37 0 28 0 28 -39 18 -28 -8 -47 -8
-64 0 -29 14 -43 62 -18 64 9 1 36 2 61 3 25 2 51 4 58 4 17 3 15 76 -3 112
-19 36 -43 50 -88 50 -41 0 -82 -37 -96 -84 -7 -23 -9 -8 -9 64 0 144 1 140
-26 140 -14 0 -27 -3 -29 -7z m191 -175 c7 -7 12 -21 12 -33 0 -18 -7 -21 -40
-23 -31 -2 -40 1 -40 13 0 45 41 70 68 43z m-213 -18 c34 -38 20 -136 -21
-146 -37 -9 -53 19 -50 83 5 78 34 104 71 63z"/>
<path d="M1505 1041 c-3 -6 -14 -8 -25 -6 -20 4 -25 -5 -34 -60 -24 -140 -42
-225 -47 -225 -5 0 -31 125 -46 220 -9 62 -21 72 -74 61 -4 0 -10 -22 -14 -48
-5 -27 -9 -54 -11 -61 -34 -173 -43 -207 -45 -166 0 10 -2 26 -4 34 -2 8 -11
58 -20 110 -21 122 -26 134 -58 135 -34 2 -34 -1 -2 -151 14 -66 28 -134 31
-153 12 -71 20 -82 61 -79 l38 3 22 119 c12 65 24 120 26 122 2 2 14 -52 28
-119 l24 -122 34 -3 c18 -2 37 0 42 5 10 10 67 263 68 307 1 14 6 17 22 13 34
-9 49 3 49 39 0 31 -3 34 -29 34 -17 0 -32 -4 -36 -9z"/>
<path d="M145 1018 c-33 -29 -46 -83 -31 -129 8 -23 27 -44 63 -69 55 -38 65
-53 52 -88 -10 -27 -55 -30 -99 -7 l-30 16 0 -34 c0 -36 16 -49 73 -62 36 -7
94 20 111 52 l13 25 12 -30 c20 -49 61 -60 108 -31 28 18 33 18 33 5 0 -10 9
-16 25 -16 l25 0 -3 143 -2 142 -25 0 c-25 0 -25 -1 -28 -95 -3 -99 -16 -130
-53 -130 -24 0 -31 30 -33 138 -1 86 -1 87 -26 87 -24 0 -25 -3 -28 -63 l-3
-62 -24 28 c-13 15 -40 37 -60 47 -40 22 -54 57 -34 81 12 15 40 15 80 -1 12
-4 18 1 21 20 11 54 -86 77 -137 33z"/>
<path d="M3411 1026 c-9 -11 -12 -341 -4 -363 8 -20 121 -16 163 5 19 9 44 31
56 49 l21 32 1 -30 c2 -59 53 -90 105 -64 20 10 33 12 35 5 2 -5 14 -10 27
-10 24 0 24 1 22 110 -1 73 2 111 9 114 8 3 11 -23 12 -80 0 -120 19 -155 76
-145 22 4 63 3 87 -3 19 -4 34 0 53 15 17 13 26 16 24 7 -2 -8 6 -13 22 -13
l25 0 -1 118 c-1 109 -3 119 -24 142 -26 27 -84 34 -122 14 -15 -8 -22 -8 -28
0 -3 7 -14 9 -23 5 -18 -6 -29 11 -31 48 -1 14 -9 22 -23 24 -27 4 -38 -11
-35 -49 2 -19 -1 -26 -9 -21 -6 3 -15 1 -19 -6 -6 -9 -13 -9 -28 -1 -45 24
-141 5 -143 -28 0 -9 -5 -1 -11 18 -13 48 -36 80 -70 97 -36 18 -154 25 -167
10z m149 -81 c19 -20 25 -37 28 -87 4 -85 -18 -129 -72 -142 -25 -6 -40 -5
-45 2 -5 9 -7 227 -2 254 2 14 68 -5 91 -27z m212 -77 c18 -29 9 -48 -22 -48
-35 0 -86 -23 -93 -42 -2 -7 -4 10 -3 39 0 28 4 49 8 47 4 -3 20 2 35 10 31
16 62 13 75 -6z m310 -4 c0 -8 1 -20 2 -26 1 -7 -18 -16 -44 -20 -61 -10 -83
-35 -89 -100 -1 -5 -8 -8 -16 -8 -10 0 -15 11 -16 38 0 20 -2 56 -2 80 -1 23
1 43 6 43 27 5 33 4 45 -4 7 -6 17 -6 25 1 14 12 56 20 75 14 6 -2 13 -10 14
-18z m-302 -117 c0 -13 -5 -28 -12 -35 -19 -19 -55 -15 -61 7 -7 29 11 51 43
51 25 0 30 -4 30 -23z m305 1 c-1 -13 -3 -26 -4 -29 0 -3 -12 -11 -25 -17 -26
-12 -46 0 -46 28 0 24 21 40 51 40 21 0 26 -4 24 -22z"/>
<path d="M519 937 c-1 -1 -3 -89 -4 -195 l-2 -192 24 -6 c13 -4 27 -4 30 -1 3
4 5 33 4 67 -1 34 3 60 9 60 5 0 10 -4 10 -9 0 -14 52 -20 77 -8 12 5 28 23
35 39 13 29 28 37 28 15 0 -22 43 -55 78 -60 18 -3 48 -1 67 4 30 9 35 14 35
41 0 25 -3 29 -17 23 -61 -27 -113 -9 -113 38 0 20 5 22 63 21 34 0 67 3 73 7
7 6 10 -13 10 -59 -1 -66 0 -67 27 -70 15 -2 28 0 28 5 1 4 2 44 3 88 2 92 16
125 51 125 22 0 25 4 25 35 0 31 -3 35 -25 35 -14 0 -30 -9 -37 -20 -16 -25
-26 -26 -24 -3 0 12 -7 19 -21 21 -23 3 -28 -7 -24 -50 1 -10 -3 -18 -8 -18
-6 0 -11 5 -11 10 0 6 -11 22 -25 35 -45 46 -130 26 -154 -37 -9 -23 -10 -22
-21 10 -20 55 -76 69 -124 31 -15 -12 -26 -17 -25 -12 4 20 -2 29 -21 30 -11
1 -21 1 -21 0z m328 -59 c6 -7 12 -22 15 -34 5 -18 0 -21 -38 -23 -35 -1 -44
1 -44 14 0 45 44 72 67 43z m-203 -14 c16 -16 20 -35 16 -89 -3 -42 -17 -65
-40 -65 -46 0 -67 108 -29 149 24 25 33 26 53 5z"/>
<path d="M2778 928 c-3 -7 -5 -73 -5 -145 l0 -133 28 0 c31 0 34 9 29 118 -2
51 15 98 38 107 31 11 42 -23 42 -127 l0 -98 30 0 30 0 0 91 c0 92 8 122 34
132 34 13 46 -20 46 -124 l0 -100 28 3 27 3 1 105 c1 58 -3 117 -9 133 -17 50
-74 63 -114 25 l-23 -22 -16 22 c-18 26 -60 29 -93 6 -22 -16 -24 -16 -33 0
-11 19 -34 21 -40 4z"/>
<path d="M3126 933 c-3 -4 -6 -69 -6 -145 l0 -138 30 0 30 0 0 95 c0 82 3 98
20 115 16 16 25 18 40 10 16 -8 20 -22 21 -63 3 -157 2 -152 32 -155 26 -3 27
-2 28 45 2 170 -1 193 -29 226 -20 23 -63 22 -96 -4 -25 -19 -26 -19 -26 -2 0
18 -31 29 -44 16z"/>
<path d="M2895 530 c0 -39 -1 -70 -2 -70 -1 0 -17 9 -35 19 -61 35 -154 8
-180 -53 -18 -45 -13 -140 9 -170 39 -54 139 -71 183 -31 18 16 20 16 20 2 0
-14 10 -17 50 -17 l50 0 0 195 0 195 -48 0 -47 0 0 -70z m-20 -120 c19 -21 22
-88 6 -117 -25 -48 -103 -32 -117 23 -22 88 57 154 111 94z"/>
<path d="M3025 405 l0 -195 47 0 c34 0 48 4 48 14 0 11 8 10 38 -6 68 -35 150
-9 178 57 30 73 8 176 -43 203 -46 25 -153 18 -153 -9 0 -5 -4 -9 -10 -9 -6 0
-10 30 -10 70 l0 70 -47 0 -48 0 0 -195z m190 23 c57 -26 50 -149 -10 -164
-38 -9 -72 18 -80 65 -7 45 14 97 42 104 10 3 19 5 20 6 1 0 14 -4 28 -11z"/>
<path d="M1737 485 c-53 -18 -67 -33 -67 -69 0 -51 19 -66 110 -90 85 -21 97
-30 81 -55 -11 -17 -102 -18 -144 -2 -42 16 -47 14 -47 -18 0 -37 17 -43 120
-47 113 -3 170 26 170 88 0 36 -29 64 -79 77 -23 6 -59 16 -82 22 -29 7 -39
15 -37 27 5 23 53 30 116 16 28 -6 52 -11 53 -10 1 0 2 13 3 28 2 20 -3 29
-17 34 -38 12 -143 12 -180 -1z"/>
<path d="M2461 488 c-75 -21 -111 -66 -111 -140 0 -52 28 -101 70 -123 37 -19
141 -26 188 -13 28 8 32 13 32 44 0 32 -2 34 -20 24 -36 -20 -96 -22 -128 -6
-57 30 -59 121 -3 150 30 16 98 14 131 -4 18 -10 20 -8 20 24 0 26 -5 36 -21
41 -35 11 -122 13 -158 3z"/>
<path d="M3795 486 c-65 -23 -94 -58 -101 -119 -7 -55 25 -121 69 -144 46 -23
134 -25 184 -3 62 27 86 70 80 143 -6 63 -21 88 -71 114 -36 19 -122 23 -161
9z m121 -73 c7 -10 14 -22 14 -28 1 -5 3 -18 5 -28 6 -32 -16 -78 -42 -88 -37
-14 -52 -11 -78 16 -55 55 -17 159 55 150 18 -3 38 -12 46 -22z"/>
<path d="M4250 488 c-13 -5 -33 -17 -44 -26 -18 -16 -19 -16 -13 6 5 22 3 23
-46 20 l-51 -3 -1 -125 c0 -69 1 -131 3 -138 6 -16 92 -16 93 1 0 6 1 47 3 91
2 68 5 81 25 97 13 11 31 19 40 20 9 0 23 2 32 4 8 1 32 -3 52 -10 l37 -13 0
34 c0 18 -5 36 -10 39 -18 11 -94 13 -120 3z"/>
<path d="M4449 482 c-46 -24 -73 -73 -71 -134 2 -86 50 -132 138 -132 38 -1
58 5 73 18 21 19 21 19 17 -5 -3 -13 -5 -29 -5 -35 -2 -31 -80 -39 -167 -18
-17 5 -20 1 -20 -28 1 -30 4 -33 39 -39 63 -10 160 -3 193 14 47 24 56 58 55
208 0 74 0 140 0 147 -1 16 -88 17 -93 1 -3 -9 -10 -9 -26 0 -37 20 -96 21
-133 3z m118 -51 c20 -1 40 -53 37 -91 -3 -38 -33 -70 -66 -70 -10 0 -31 12
-45 26 -22 22 -25 32 -20 67 6 45 35 77 65 72 9 -2 23 -4 29 -4z"/>
<path d="M261 413 c11 -43 21 -87 23 -98 2 -11 9 -39 15 -62 12 -42 12 -43 56
-43 25 0 45 1 45 3 0 1 11 33 23 71 l23 69 12 -44 c28 -96 30 -99 78 -99 44 0
48 4 60 62 2 13 8 37 12 53 l9 30 7 -35 c24 -114 22 -111 74 -108 l46 3 22 70
22 70 21 -73 22 -73 47 3 46 3 17 65 c17 68 20 67 39 -17 l12 -53 47 0 48 0
20 73 20 72 23 -72 24 -73 46 0 46 0 28 123 c15 67 30 130 32 140 5 14 -1 17
-35 17 -23 0 -41 -3 -42 -7 0 -5 -2 -15 -4 -23 -8 -36 -14 -68 -23 -113 -11
-55 -18 -66 -25 -40 -3 10 -10 39 -17 64 -12 46 -13 47 -51 46 -38 -1 -40 -2
-54 -51 -8 -27 -15 -56 -15 -63 0 -7 -5 -13 -10 -13 -6 0 -9 3 -8 8 1 4 -6 49
-16 100 l-18 92 -49 0 c-45 0 -49 -2 -55 -27 -3 -16 -8 -35 -10 -43 -2 -8 -6
-33 -10 -54 -3 -21 -9 -48 -14 -60 -6 -18 -9 -14 -19 24 -21 83 -27 91 -66 88
-31 -2 -36 -6 -50 -47 -8 -24 -15 -52 -15 -62 0 -10 -5 -21 -10 -24 -6 -4 -9
-3 -8 2 2 4 -6 52 -17 106 l-19 97 -47 0 c-37 0 -49 -4 -53 -17 -7 -23 -23
-98 -31 -143 -3 -19 -8 -36 -10 -38 -2 -2 -12 25 -22 59 l-19 64 -39 0 -39 0
-15 -57 c-8 -32 -18 -58 -23 -58 -4 0 -10 17 -14 38 -3 20 -12 62 -18 92 -12
55 -13 55 -53 58 l-40 3 18 -78z"/>
<path d="M1957 463 c4 -16 18 -77 33 -138 l26 -110 46 -3 47 -3 22 73 23 73
19 -60 c10 -33 19 -66 19 -72 1 -9 18 -13 49 -13 55 0 49 -12 89 169 11 52 23
98 26 103 3 4 -13 8 -36 8 -42 0 -45 -3 -55 -55 -3 -16 -7 -34 -9 -40 -1 -5
-6 -31 -10 -57 -5 -26 -11 -46 -15 -43 -4 2 -14 29 -21 60 -10 43 -18 57 -36
61 -46 12 -58 2 -80 -71 -13 -41 -23 -61 -24 -47 -2 12 -3 25 -4 30 -1 4 -8
34 -15 67 -20 98 -18 95 -62 95 -38 0 -39 -1 -32 -27z"/>
<path d="M1416 263 c1 -21 2 -42 3 -46 1 -4 24 -7 53 -5 l52 3 1 43 1 42 -56
0 -56 0 2 -37z"/>
<path d="M3464 255 l-1 -45 57 0 56 0 0 45 -1 45 -55 0 -55 0 -1 -45z"/>
</g>
</svg>
